<svg width="1760" height="739" viewBox="0 0 1760 739" fill="none" xmlns="http://www.w3.org/2000/svg">
<rect width="1760" height="739" rx="15" fill="#FFFFF6"/>
<path opacity="0.1" d="M925.701 145.377C879.618 145.112 835.447 133.334 793.218 120.291C750.989 107.248 709.135 92.7189 664.001 86.3335C634.973 82.2433 601.893 82.3684 578.925 96.3236C556.825 109.757 550.117 132.179 546.727 152.917C544.168 168.52 542.844 184.91 551.228 199.263C557.045 209.224 567.143 217.47 574.225 226.975C598.855 260.042 583.05 301.937 558.045 335.417C546.278 351.123 532.629 366.167 523.686 382.792C514.743 399.418 510.881 418.332 519.457 434.862C527.958 451.252 547.565 463.243 568.687 471.504C611.593 488.27 661.765 492.147 710.628 493.846C818.819 497.612 927.363 492.213 1035.61 486.82C1075.68 484.819 1115.92 482.804 1155.22 476.521C1177.05 473.02 1199.54 467.745 1215.16 455.967C1235.02 441.004 1239.43 416.39 1225.46 398.587C1202.04 368.712 1139.13 362.672 1122.5 330.407C1113.33 312.641 1121.81 292.403 1134.09 275.425C1160.43 239.003 1205.27 206.516 1206.68 165.585C1207.65 137.468 1185.05 109.882 1150.83 97.4197C1114.91 84.3105 1065.71 87.2531 1040.03 110.941C1013.61 135.328 966.422 145.612 925.701 145.377Z" fill="#123F69"/>
<path d="M899.496 263.456C899.496 263.456 879.286 227.637 848.839 217.316C836.043 213.066 824.97 204.78 817.281 193.702C813.672 188.415 810.555 182.808 807.97 176.951" stroke="#535461" stroke-width="2" stroke-miterlimit="10"/>
<path d="M788.834 170.33C792.298 173.699 808.456 177.178 808.456 177.178C808.456 177.178 804.492 161.134 801.028 157.765C799.362 156.147 797.122 155.258 794.801 155.292C792.48 155.327 790.267 156.282 788.65 157.949C787.033 159.615 786.144 161.855 786.179 164.177C786.213 166.499 787.169 168.712 788.834 170.33Z" fill="#123F69"/>
<path d="M798.007 199.389C802.75 200.33 818.209 194.467 818.209 194.467C818.209 194.467 806.096 183.138 801.382 182.196C799.103 181.749 796.739 182.225 794.811 183.52C792.883 184.816 791.548 186.824 791.101 189.104C790.653 191.384 791.129 193.748 792.424 195.677C793.719 197.606 795.727 198.941 798.007 199.389Z" fill="#123F69"/>
<path d="M831.247 230.793C835.814 229.211 846.198 216.352 846.198 216.352C846.198 216.352 830.092 212.674 825.525 214.248C824.424 214.612 823.406 215.191 822.531 215.952C821.655 216.712 820.94 217.64 820.425 218.679C819.911 219.719 819.609 220.851 819.536 222.008C819.462 223.166 819.62 224.326 819.999 225.423C820.378 226.519 820.971 227.529 821.744 228.394C822.517 229.259 823.453 229.961 824.5 230.461C825.546 230.961 826.682 231.247 827.84 231.304C828.998 231.361 830.156 231.188 831.247 230.793Z" fill="#123F69"/>
<path d="M861.783 248.905C866.549 248.117 878.956 237.193 878.956 237.193C878.956 237.193 863.703 230.837 858.93 231.624C856.639 232.003 854.592 233.276 853.24 235.164C851.887 237.052 851.34 239.4 851.718 241.691C852.097 243.983 853.37 246.03 855.257 247.383C857.145 248.736 859.492 249.283 861.783 248.905Z" fill="#123F69"/>
<path d="M831.637 181.909C831.637 186.75 822.893 200.771 822.893 200.771C822.893 200.771 814.134 186.757 814.134 181.916C814.134 179.595 815.056 177.368 816.697 175.726C818.338 174.084 820.564 173.162 822.885 173.162C825.207 173.162 827.433 174.084 829.074 175.726C830.715 177.368 831.637 179.595 831.637 181.916V181.909Z" fill="#123F69"/>
<path d="M867.078 203.537C865.607 208.157 853.104 218.92 853.104 218.92C853.104 218.92 848.941 202.919 850.383 198.322C851.076 196.105 852.622 194.255 854.679 193.178C856.736 192.102 859.136 191.886 861.352 192.58C863.568 193.273 865.417 194.819 866.494 196.877C867.57 198.934 867.786 201.336 867.092 203.552L867.078 203.537Z" fill="#123F69"/>
<path d="M898.636 229.285C897.996 234.081 887.449 246.815 887.449 246.815C887.449 246.815 880.647 231.749 881.286 226.953C881.596 224.651 882.806 222.567 884.651 221.159C886.497 219.75 888.826 219.133 891.127 219.442C893.427 219.751 895.511 220.962 896.919 222.808C898.327 224.654 898.945 226.984 898.636 229.285Z" fill="#123F69"/>
<path opacity="0.25" d="M788.834 170.33C792.298 173.699 808.456 177.178 808.456 177.178C808.456 177.178 804.492 161.134 801.028 157.765C799.362 156.147 797.122 155.258 794.801 155.292C792.48 155.327 790.267 156.282 788.65 157.949C787.033 159.615 786.144 161.855 786.179 164.177C786.213 166.499 787.169 168.712 788.834 170.33Z" fill="black"/>
<path opacity="0.25" d="M798.007 199.389C802.75 200.33 818.209 194.467 818.209 194.467C818.209 194.467 806.096 183.138 801.382 182.196C799.103 181.749 796.739 182.225 794.811 183.52C792.883 184.816 791.548 186.824 791.101 189.104C790.653 191.384 791.129 193.748 792.424 195.677C793.719 197.606 795.727 198.941 798.007 199.389Z" fill="black"/>
<path opacity="0.25" d="M831.247 230.793C835.814 229.211 846.198 216.352 846.198 216.352C846.198 216.352 830.092 212.674 825.525 214.248C824.424 214.612 823.406 215.191 822.531 215.952C821.655 216.712 820.94 217.64 820.425 218.679C819.911 219.719 819.609 220.851 819.536 222.008C819.462 223.166 819.62 224.326 819.999 225.423C820.378 226.519 820.971 227.529 821.744 228.394C822.517 229.259 823.453 229.961 824.5 230.461C825.546 230.961 826.682 231.247 827.84 231.304C828.998 231.361 830.156 231.188 831.247 230.793Z" fill="black"/>
<path opacity="0.25" d="M861.783 248.905C866.549 248.117 878.956 237.193 878.956 237.193C878.956 237.193 863.703 230.837 858.93 231.624C856.639 232.003 854.592 233.276 853.24 235.164C851.887 237.052 851.34 239.4 851.718 241.691C852.097 243.983 853.37 246.03 855.257 247.383C857.145 248.736 859.492 249.283 861.783 248.905Z" fill="black"/>
<path opacity="0.25" d="M831.637 181.909C831.637 186.75 822.893 200.771 822.893 200.771C822.893 200.771 814.134 186.757 814.134 181.916C814.134 179.595 815.056 177.368 816.697 175.726C818.338 174.084 820.564 173.162 822.885 173.162C825.207 173.162 827.433 174.084 829.074 175.726C830.715 177.368 831.637 179.595 831.637 181.916V181.909Z" fill="black"/>
<path opacity="0.25" d="M867.078 203.537C865.607 208.157 853.104 218.92 853.104 218.92C853.104 218.92 848.941 202.919 850.383 198.322C851.076 196.105 852.622 194.255 854.679 193.178C856.736 192.102 859.136 191.886 861.352 192.58C863.568 193.273 865.417 194.819 866.494 196.877C867.57 198.934 867.786 201.336 867.092 203.552L867.078 203.537Z" fill="black"/>
<path opacity="0.25" d="M898.636 229.285C897.996 234.081 887.449 246.815 887.449 246.815C887.449 246.815 880.647 231.749 881.286 226.953C881.596 224.651 882.806 222.567 884.651 221.159C886.497 219.75 888.826 219.133 891.127 219.442C893.427 219.751 895.511 220.962 896.919 222.808C898.327 224.654 898.945 226.984 898.636 229.285Z" fill="black"/>
<path d="M898.342 262.749C898.342 262.749 894.37 221.803 870.726 200.027C860.746 190.958 853.977 178.896 851.435 165.651C850.279 159.353 849.703 152.963 849.714 146.561" stroke="#535461" stroke-width="2" stroke-miterlimit="10"/>
<path d="M834.895 132.746C836.697 137.233 850.06 146.966 850.06 146.966C850.06 146.966 852.935 130.686 851.126 126.198C850.709 125.114 850.081 124.124 849.278 123.286C848.474 122.447 847.512 121.777 846.447 121.314C845.383 120.851 844.236 120.604 843.075 120.589C841.914 120.573 840.762 120.789 839.685 121.223C838.608 121.658 837.629 122.302 836.803 123.119C835.978 123.936 835.323 124.908 834.877 125.981C834.432 127.053 834.203 128.204 834.207 129.365C834.21 130.526 834.444 131.676 834.895 132.746Z" fill="#123F69"/>
<path d="M831.483 163.003C835.439 165.784 851.935 166.681 851.935 166.681C851.935 166.681 845.508 151.453 841.558 148.672C839.659 147.336 837.308 146.809 835.02 147.207C832.733 147.605 830.697 148.895 829.361 150.795C828.025 152.694 827.498 155.047 827.896 157.335C828.294 159.623 829.584 161.659 831.483 162.995V163.003Z" fill="#123F69"/>
<path d="M849.177 205.222C853.994 205.627 868.696 198.072 868.696 198.072C868.696 198.072 855.458 188.177 850.641 187.773C848.327 187.578 846.031 188.31 844.258 189.808C842.484 191.306 841.378 193.448 841.183 195.762C840.988 198.076 841.72 200.372 843.218 202.147C844.715 203.921 846.856 205.027 849.17 205.222H849.177Z" fill="#123F69"/>
<path d="M869.755 234.148C874.432 235.361 890.2 230.403 890.2 230.403C890.2 230.403 878.823 218.412 874.145 217.162C873.014 216.804 871.822 216.681 870.641 216.799C869.461 216.917 868.316 217.274 867.278 217.849C866.24 218.423 865.329 219.202 864.601 220.139C863.873 221.076 863.343 222.152 863.044 223.3C862.744 224.449 862.681 225.646 862.859 226.819C863.036 227.993 863.45 229.118 864.076 230.126C864.702 231.135 865.526 232.005 866.498 232.685C867.471 233.365 868.571 233.84 869.733 234.081L869.755 234.148Z" fill="#123F69"/>
<path d="M869.343 160.686C867.387 165.1 853.708 174.384 853.708 174.384C853.708 174.384 851.376 158.023 853.333 153.602C854.272 151.478 856.016 149.814 858.181 148.977C860.347 148.139 862.756 148.197 864.879 149.136C867.002 150.076 868.665 151.82 869.502 153.986C870.34 156.152 870.282 158.562 869.343 160.686Z" fill="#123F69"/>
<path d="M892.973 194.827C889.781 198.454 873.954 203.213 873.954 203.213C873.954 203.213 876.624 186.904 879.838 183.27C880.597 182.406 881.518 181.7 882.549 181.192C883.581 180.684 884.702 180.384 885.85 180.309C886.997 180.235 888.148 180.387 889.236 180.758C890.325 181.128 891.33 181.709 892.193 182.468C893.057 183.227 893.763 184.149 894.271 185.18C894.779 186.212 895.079 187.334 895.153 188.481C895.228 189.629 895.075 190.78 894.705 191.869C894.335 192.958 893.754 193.963 892.995 194.827H892.973Z" fill="#123F69"/>
<path d="M911.396 231.153C908.866 235.273 894.069 242.644 894.069 242.644C894.069 242.644 893.944 226.114 896.474 221.987C897.721 220.078 899.664 218.731 901.889 218.232C904.114 217.733 906.445 218.122 908.388 219.315C910.331 220.509 911.732 222.413 912.294 224.624C912.855 226.834 912.533 229.176 911.396 231.153Z" fill="#123F69"/>
<path opacity="0.1" d="M1088.85 523.111C1091.02 527.524 1075.67 532.269 1056.66 533.638C1039.63 534.866 1025.62 532.865 1023.85 529.275C1022.08 525.685 1032.93 521.33 1049.59 519.366C1068.19 517.189 1086.68 518.741 1088.85 523.111Z" fill="#123F69"/>
<path d="M641.878 289.653L876.176 206.649V493.398L641.878 488.513V289.653Z" fill="white"/>
<path opacity="0.2" d="M641.878 289.653L876.176 206.649V493.398L641.878 488.513V289.653Z" fill="#123F69"/>
<path d="M481 337.006L614.667 289.652V488.512H481V337.006Z" fill="white"/>
<path opacity="0.2" d="M481 337.006L614.667 289.652V488.512H481V337.006Z" fill="#123F69"/>
<path d="M876.175 206.649L1110.47 289.653V488.513L876.175 493.398V206.649Z" fill="white"/>
<path opacity="0.5" d="M876.175 206.649L1110.47 289.653V488.513L876.175 493.398V206.649Z" fill="#123F69"/>
<path d="M1273.76 337.601L1138.41 289.652V488.512H1273.76V337.601Z" fill="white"/>
<path opacity="0.5" d="M1273.76 337.601L1138.41 289.652V488.512H1273.76V337.601Z" fill="#123F69"/>
<path d="M558.891 371.53C557.942 371.53 557.17 372.825 557.17 374.421V410.409C557.22 413.96 556.383 417.467 554.735 420.613C553.198 423.313 550.845 425.027 548.594 425.027H547.124C544.917 425.027 542.755 423.379 541.063 420.473C539.3 417.336 538.38 413.795 538.394 410.196V363.762C538.348 361.195 539.009 358.665 540.306 356.449C541.534 354.507 543.145 353.433 544.836 353.433C546.528 353.433 548.08 354.507 549.249 356.435C550.489 358.685 551.113 361.222 551.058 363.791V407.15C551.058 410.314 549.587 413.109 547.852 413.109C546.381 413.109 544.733 410.726 544.733 407.15V382.388C544.733 380.799 543.961 379.497 543.012 379.497C542.064 379.497 541.284 380.799 541.284 382.388V407.121C541.284 413.698 544.108 418.656 547.852 418.656C549.676 418.656 551.36 417.523 552.573 415.456C553.93 412.893 554.597 410.02 554.507 407.121V363.762C554.583 359.761 553.59 355.812 551.632 352.322C549.808 349.27 547.374 347.6 544.777 347.6C542.181 347.6 539.747 349.27 537.901 352.322C535.937 355.818 534.947 359.776 535.033 363.784V410.211C535.033 415.529 536.386 420.929 538.637 424.651C540.887 428.374 543.932 430.537 547.05 430.537H548.558C551.61 430.537 554.669 428.374 556.949 424.593C558.129 422.596 559.018 420.441 559.589 418.192C560.248 415.646 560.58 413.025 560.575 410.395V374.348C560.575 372.751 559.839 371.457 558.861 371.457L558.891 371.53Z" fill="white"/>
<path d="M888.149 451.656C888.149 451.656 892.51 457.365 886.134 465.979C879.757 474.594 874.492 481.877 876.624 487.232C876.624 487.232 886.244 471.232 894.069 471.048C901.894 470.864 896.753 461.279 888.149 451.656Z" fill="#123F69"/>
<path opacity="0.1" d="M888.149 451.656C888.527 452.21 888.827 452.814 889.038 453.451C896.672 462.426 900.739 470.798 893.4 471.011C886.56 471.21 878.36 483.436 876.396 486.526C876.457 486.776 876.533 487.022 876.624 487.262C876.624 487.262 886.244 471.261 894.069 471.077C901.894 470.893 896.753 461.279 888.149 451.656Z" fill="black"/>
<path d="M896.253 458.932C896.253 460.941 896.025 462.566 895.746 462.566C895.466 462.566 895.246 460.941 895.246 458.932C895.246 456.924 895.525 457.866 895.805 457.866C896.084 457.866 896.253 456.924 896.253 458.932Z" fill="#FFD037"/>
<path d="M899.034 461.33C897.275 462.287 895.738 462.868 895.605 462.625C895.473 462.382 896.79 461.404 898.548 460.418C900.306 459.432 899.615 460.161 899.747 460.418C899.88 460.676 900.799 460.367 899.034 461.33Z" fill="#FFD037"/>
<path d="M865.107 451.656C865.107 451.656 860.746 457.365 867.122 465.979C873.498 474.594 878.749 481.877 876.624 487.232C876.624 487.232 867.012 471.232 859.179 471.048C851.347 470.864 856.495 461.279 865.107 451.656Z" fill="#123F69"/>
<path opacity="0.1" d="M865.107 451.656C864.728 452.21 864.429 452.814 864.217 453.451C856.576 462.426 852.509 470.798 859.856 471.011C866.688 471.21 874.896 483.436 876.859 486.526C876.796 486.776 876.718 487.022 876.624 487.262C876.624 487.262 867.012 471.261 859.179 471.077C851.347 470.893 856.495 461.279 865.107 451.656Z" fill="black"/>
<path d="M857.002 458.932C857.002 460.941 857.223 462.566 857.503 462.566C857.782 462.566 858.01 460.941 858.01 458.932C858.01 456.924 857.723 457.866 857.451 457.866C857.179 457.866 857.002 456.924 857.002 458.932Z" fill="#FFD037"/>
<path d="M854.216 461.33C855.981 462.287 857.519 462.868 857.651 462.625C857.783 462.382 856.467 461.404 854.708 460.418C852.95 459.432 853.642 460.161 853.509 460.418C853.377 460.676 852.428 460.367 854.216 461.33Z" fill="#FFD037"/>
<path opacity="0.1" d="M876.624 530.871C901.807 530.871 922.221 527.739 922.221 523.875C922.221 520.011 901.807 516.879 876.624 516.879C851.441 516.879 831.026 520.011 831.026 523.875C831.026 527.739 851.441 530.871 876.624 530.871Z" fill="#123F69"/>
<path d="M900.099 479.544L899.879 481.325L899.57 483.841L899.445 484.885L899.136 487.409L899.003 488.453L898.702 490.969L895.209 519.586C894.9 522.138 890.73 524.132 885.692 524.132H867.563C862.525 524.132 858.363 522.138 858.047 519.586L854.553 490.969L854.244 488.453L854.119 487.409L853.81 484.885L853.678 483.841L853.377 481.325L853.156 479.544C852.979 478.073 855.237 476.874 858.091 476.874H895.172C898.025 476.874 900.276 478.095 900.099 479.544Z" fill="#444053"/>
<path d="M899.879 481.325L899.57 483.841H853.678L853.377 481.325H899.879Z" fill="#9D9CB5"/>
<path d="M899.445 484.894L899.136 487.409H854.12L853.811 484.894H899.445Z" fill="#9D9CB5"/>
<path d="M899.004 488.46L898.702 490.976H854.553L854.245 488.46H899.004Z" fill="#9D9CB5"/>
<path d="M787.974 324.154L780.95 333.489C780.892 333.576 780.809 333.644 780.712 333.685C780.615 333.725 780.509 333.737 780.406 333.717L773.147 331.981C773.01 331.929 772.89 331.839 772.802 331.722C772.713 331.605 772.66 331.465 772.647 331.319L771.353 321.704C771.314 321.446 771.374 321.184 771.522 320.969L778.531 311.648C778.793 311.274 778.92 310.821 778.891 310.365C778.861 309.909 778.677 309.477 778.369 309.139C777.041 307.814 775.27 307.028 773.397 306.932C773.295 306.921 773.191 306.921 773.088 306.932C771.132 307.08 766.94 308.529 763.704 313.082C760.564 317.496 757.276 325.633 760.189 334.725C760.534 335.821 760.924 337.271 759.762 338.808C758.6 340.346 728.542 377.797 728.542 377.797C725.726 381.012 725.932 386.956 728.542 390.414C729.098 391.203 729.828 391.853 730.677 392.313C731.525 392.772 732.469 393.029 733.433 393.062C734.372 393.045 735.291 392.786 736.101 392.311C736.912 391.835 737.586 391.159 738.059 390.348C738.059 390.348 766.109 350.77 767.477 348.967C767.661 348.666 767.915 348.413 768.217 348.23C768.519 348.047 768.86 347.939 769.212 347.915C769.698 347.941 770.165 348.112 770.551 348.408C772.043 349.428 773.812 349.964 775.618 349.946C779.81 349.946 784.216 347.371 786.907 343.81C789.683 340.231 791.297 335.887 791.533 331.363C791.626 328.894 791.049 326.446 789.864 324.279C789.785 324.101 789.661 323.948 789.503 323.835C789.345 323.723 789.16 323.654 788.967 323.638C788.773 323.621 788.579 323.657 788.404 323.741C788.23 323.826 788.081 323.955 787.974 324.117V324.154ZM735.022 385.912C734.852 386.17 734.622 386.382 734.35 386.528C734.079 386.675 733.775 386.751 733.466 386.751C733.158 386.751 732.854 386.675 732.582 386.528C732.311 386.382 732.08 386.17 731.911 385.912C731.5 385.303 731.28 384.586 731.28 383.852C731.28 383.118 731.5 382.4 731.911 381.792C732.08 381.534 732.311 381.322 732.582 381.176C732.854 381.029 733.158 380.952 733.466 380.952C733.775 380.952 734.079 381.029 734.35 381.176C734.622 381.322 734.852 381.534 735.022 381.792C735.434 382.4 735.655 383.117 735.656 383.851C735.657 384.585 735.439 385.303 735.029 385.912H735.022Z" fill="white"/>
<path d="M1036.63 342.199C1034.69 319.747 1019.48 302.253 1000.97 302.253C988.713 302.253 977.924 309.896 971.445 321.571C969.456 320.539 967.25 319.997 965.01 319.989C955.655 319.989 948.094 330.288 947.925 341.897C938.364 345.693 932.069 357.346 932.069 369.572C932.069 384.557 941.806 397.784 953.809 397.784H1032.82C1044.83 397.784 1054.57 384.543 1054.57 369.572C1054.57 356.227 1046.82 344.464 1036.63 342.199ZM1018.79 337.049L986.801 377.142C986.389 377.65 985.33 378.782 984.021 378.782C983.46 378.717 982.92 378.532 982.438 378.238C981.955 377.945 981.542 377.551 981.226 377.083L967.804 360.347C967.619 360.103 967.518 359.804 967.518 359.497C967.518 359.191 967.619 358.892 967.804 358.648L972.062 353.336C972.139 353.229 972.239 353.141 972.355 353.078C972.471 353.016 972.6 352.981 972.732 352.976C972.864 352.98 972.993 353.015 973.109 353.077C973.225 353.14 973.325 353.229 973.401 353.336L984.028 366.578L1013.21 329.891C1013.29 329.785 1013.39 329.698 1013.5 329.635C1013.62 329.573 1013.75 329.537 1013.88 329.531C1014.01 329.531 1014.14 329.565 1014.26 329.627C1014.38 329.69 1014.48 329.781 1014.55 329.891L1018.73 335.298C1018.94 335.537 1019.06 335.839 1019.07 336.154C1019.07 336.468 1018.98 336.776 1018.79 337.027V337.049Z" fill="white"/>
<path d="M1230.33 377.754C1234.35 377.754 1237.6 373.409 1237.6 368.05C1237.6 362.691 1234.35 358.347 1230.33 358.347C1226.31 358.347 1223.05 362.691 1223.05 368.05C1223.05 373.409 1226.31 377.754 1230.33 377.754Z" fill="white"/>
<path d="M1230.33 381.497C1229.53 381.493 1228.73 381.364 1227.97 381.115L1220.79 390.877C1220.73 390.959 1220.7 391.058 1220.7 391.16C1220.7 391.262 1220.73 391.361 1220.79 391.443L1232.2 407.627C1232.57 408.175 1232.77 408.824 1232.77 409.489C1232.77 410.153 1232.57 410.802 1232.2 411.35C1232.03 411.571 1231.82 411.752 1231.58 411.88C1231.34 412.007 1231.07 412.078 1230.8 412.086C1230.53 412.078 1230.26 412.008 1230.02 411.88C1229.78 411.753 1229.57 411.571 1229.41 411.35L1218.05 395.166C1218.02 395.129 1217.99 395.099 1217.95 395.079C1217.91 395.058 1217.87 395.047 1217.83 395.047C1217.78 395.047 1217.74 395.058 1217.7 395.079C1217.66 395.099 1217.63 395.129 1217.6 395.166L1214.83 398.932C1212.52 402.066 1209.44 401.595 1206.13 401.617C1202.82 401.639 1199.61 399.756 1197.25 396.578L1194.59 392.959C1194.57 392.922 1194.54 392.892 1194.5 392.872C1194.46 392.851 1194.42 392.84 1194.37 392.84C1194.33 392.84 1194.29 392.851 1194.25 392.872C1194.21 392.892 1194.18 392.922 1194.15 392.959L1182.79 409.143C1182.63 409.364 1182.42 409.545 1182.18 409.673C1181.93 409.8 1181.66 409.871 1181.39 409.879C1181.12 409.871 1180.85 409.801 1180.61 409.673C1180.37 409.546 1180.16 409.364 1180 409.143C1179.62 408.595 1179.42 407.946 1179.42 407.282C1179.42 406.617 1179.62 405.968 1180 405.421L1191.41 389.236C1191.46 389.15 1191.49 389.053 1191.49 388.953C1191.49 388.853 1191.46 388.756 1191.41 388.67L1175.09 366.512C1174.89 366.247 1174.57 366.431 1174.57 366.792V411.137C1174.57 414.697 1176.78 417.61 1179.42 417.61L1232.75 419.817C1235.42 419.817 1237.6 416.875 1237.6 413.343V377.348C1235.77 379.901 1233.2 381.497 1230.33 381.497Z" fill="white"/>
<path d="M1220.25 368.049C1220.24 365.831 1220.67 363.633 1221.5 361.576L1179.41 359.369C1178.83 359.383 1178.27 359.516 1177.76 359.761C1177.24 360.005 1176.78 360.356 1176.41 360.788L1200.18 393.083C1200.83 394.07 1201.71 394.886 1202.74 395.462C1203.77 396.038 1204.92 396.358 1206.1 396.394C1208.31 396.394 1210.46 397.431 1212.03 395.29L1224.22 378.724C1221.8 376.259 1220.25 372.397 1220.25 368.049Z" fill="white"/>
<path d="M1279.59 484.364C1279.59 484.364 1270.99 483.849 1272.01 489.866C1271.95 490.169 1271.99 490.482 1272.12 490.761C1272.26 491.039 1272.47 491.269 1272.74 491.418C1272.74 491.418 1272.74 490.97 1273.62 491.124C1273.93 491.174 1274.25 491.189 1274.56 491.168C1274.98 491.136 1275.38 490.971 1275.7 490.697C1275.7 490.697 1278.11 489.697 1279.05 485.747C1279.05 485.747 1279.75 484.886 1279.72 484.665L1278.25 485.283C1278.53 485.887 1278.57 486.573 1278.35 487.203C1278.35 487.203 1278.31 485.32 1278.03 485.364C1277.97 485.364 1277.29 485.732 1277.29 485.732C1277.29 485.732 1278.15 487.549 1277.51 488.873C1277.51 488.873 1277.75 486.666 1277.03 485.864L1276.01 486.46C1276.01 486.46 1277.01 488.336 1276.33 489.874C1276.33 489.874 1276.51 487.519 1275.79 486.6L1274.87 487.336C1274.87 487.336 1275.81 489.197 1275.23 490.469C1275.23 490.469 1275.16 487.725 1274.67 487.527C1274.32 487.824 1274 488.162 1273.73 488.535C1273.73 488.535 1274.37 489.881 1273.98 490.587C1273.98 490.587 1273.73 488.763 1273.54 488.755C1273.11 489.373 1272.81 490.064 1272.65 490.793C1272.69 490.026 1272.93 489.283 1273.34 488.638C1272.88 488.725 1272.45 488.948 1272.11 489.278C1272.11 489.278 1272.23 488.424 1273.58 488.343C1273.82 487.989 1274.1 487.664 1274.42 487.372C1273.71 487.312 1273 487.394 1272.33 487.615C1272.33 487.615 1273.06 486.806 1274.66 487.174L1275.57 486.438C1274.76 486.306 1273.94 486.306 1273.13 486.438C1273.13 486.438 1273.97 485.702 1275.82 486.247L1276.82 485.651C1276.05 485.482 1275.27 485.413 1274.48 485.445C1275.33 485.128 1276.27 485.144 1277.1 485.489L1277.84 485.173C1277.84 485.173 1276.76 484.959 1276.46 484.93C1276.15 484.901 1276.12 484.805 1276.12 484.805C1276.8 484.694 1277.5 484.773 1278.13 485.033C1278.64 484.853 1279.12 484.629 1279.59 484.364Z" fill="#123F69"/>
<path opacity="0.1" d="M1273.67 492.97C1277.03 492.97 1279.75 492.509 1279.75 491.94C1279.75 491.371 1277.03 490.91 1273.67 490.91C1270.31 490.91 1267.59 491.371 1267.59 491.94C1267.59 492.509 1270.31 492.97 1273.67 492.97Z" fill="#123F69"/>
<path d="M1147.18 484.613C1147.18 484.613 1136.81 483.988 1138.03 491.234C1137.97 491.603 1138.02 491.982 1138.19 492.318C1138.35 492.653 1138.62 492.928 1138.95 493.103C1138.95 493.103 1138.95 492.566 1140.02 492.749C1140.39 492.813 1140.76 492.83 1141.14 492.801C1141.65 492.768 1142.14 492.569 1142.52 492.235C1142.52 492.235 1145.47 491.028 1146.57 486.261C1146.57 486.261 1147.41 485.224 1147.38 484.952L1145.63 485.687C1145.96 486.413 1146.01 487.239 1145.75 487.997C1145.75 487.997 1145.7 485.731 1145.36 485.79C1145.3 485.79 1144.45 486.224 1144.45 486.224C1144.45 486.224 1145.48 488.431 1144.71 490.028C1144.71 490.028 1145 487.313 1144.13 486.349L1142.9 487.085C1142.9 487.085 1144.1 489.358 1143.29 491.219C1143.29 491.219 1143.49 488.372 1142.64 487.262L1141.52 488.137C1141.52 488.137 1142.66 490.344 1141.96 491.911C1141.96 491.911 1141.88 488.6 1141.28 488.35C1140.86 488.707 1140.48 489.115 1140.16 489.564C1140.16 489.564 1140.89 491.19 1140.45 492.051C1140.45 492.051 1140.16 489.844 1139.91 489.844C1139.41 490.592 1139.04 491.428 1138.84 492.308C1138.89 491.382 1139.18 490.484 1139.68 489.704C1139.13 489.804 1138.62 490.059 1138.21 490.44C1138.21 490.44 1138.36 489.402 1139.94 489.314C1140.23 488.884 1140.57 488.489 1140.96 488.137C1140.1 488.064 1139.25 488.164 1138.43 488.431C1138.43 488.431 1139.27 487.453 1141.24 487.894L1142.35 486.997C1141.37 486.839 1140.38 486.839 1139.41 486.997C1139.41 486.997 1140.41 486.136 1142.65 486.761L1143.85 486.026C1142.92 485.821 1141.98 485.74 1141.03 485.783C1141.03 485.783 1142.14 485.18 1144.2 485.827L1145.05 485.444C1145.05 485.444 1143.77 485.194 1143.38 485.15C1143 485.106 1142.99 485.003 1142.99 485.003C1143.81 484.868 1144.65 484.963 1145.41 485.275C1146.02 485.108 1146.61 484.887 1147.18 484.613Z" fill="#123F69"/>
<path opacity="0.1" d="M1140.04 495.009C1144.09 495.009 1147.38 494.452 1147.38 493.766C1147.38 493.079 1144.09 492.522 1140.04 492.522C1135.98 492.522 1132.7 493.079 1132.7 493.766C1132.7 494.452 1135.98 495.009 1140.04 495.009Z" fill="#123F69"/>
<path d="M1082.12 412.093C1082.12 412.093 1082.97 411.276 1082.69 410.724C1082.61 410.553 1082.56 410.366 1082.56 410.176C1082.56 409.987 1082.61 409.799 1082.69 409.628C1082.69 409.628 1080.79 402.169 1080.08 401.418C1079.62 400.872 1079.26 400.243 1079.03 399.564C1079.11 399.419 1079.14 399.257 1079.14 399.094C1079.1 398.342 1078.85 397.616 1078.4 397.012C1077.85 396.196 1077.54 395.238 1077.53 394.253C1077.52 394.131 1077.52 394.008 1077.53 393.885C1077.31 393.332 1076.97 392.837 1076.53 392.444C1076.09 392.051 1075.56 391.77 1074.98 391.627C1075.22 390.045 1075.55 388.464 1075.66 386.875C1075.99 381.894 1074.13 377.061 1072.31 372.397C1071.91 371.241 1071.38 370.137 1070.71 369.109C1069.9 368.034 1068.87 367.144 1067.68 366.498C1066.5 365.851 1065.19 365.462 1063.85 365.357C1062.86 365.233 1061.85 365.331 1060.9 365.644C1059.97 366.064 1059.11 366.638 1058.37 367.343C1057.58 368.005 1056.79 368.682 1056.06 369.403L1055.98 369.491L1055.72 369.763L1055.62 369.866L1055.37 370.139L1055.29 370.234C1055.18 370.359 1055.07 370.484 1054.97 370.617C1054.87 370.742 1054.78 370.86 1054.69 370.985L1054.6 371.11L1054.41 371.382L1054.32 371.522C1054.26 371.617 1054.2 371.713 1054.15 371.809L1054.06 371.941C1053.99 372.081 1053.91 372.22 1053.84 372.368L1053.57 372.956V373.037L1053.42 373.427C1053.22 373.898 1053.03 374.369 1052.78 374.817L1052.74 374.891L1052.21 375.531C1051.97 375.849 1051.77 376.195 1051.61 376.561L1051.56 376.678C1051.56 376.73 1051.52 376.789 1051.5 376.84L1051.45 376.973C1051.43 377.03 1051.42 377.087 1051.39 377.142C1051.39 377.186 1051.39 377.23 1051.39 377.282L1051.35 377.444C1051.35 377.495 1051.35 377.539 1051.35 377.591C1051.35 377.642 1051.35 377.701 1051.31 377.753V377.907V378.069C1051.31 378.128 1051.31 378.187 1051.31 378.253C1051.31 378.319 1051.31 378.341 1051.31 378.378C1051.31 378.415 1051.31 378.584 1051.31 378.687C1051.31 378.79 1051.31 378.768 1051.31 378.812C1051.31 378.878 1051.31 378.944 1051.31 379.01C1051.31 379.055 1051.31 379.099 1051.31 379.143C1051.31 379.204 1051.31 379.266 1051.31 379.327V379.459C1051.31 379.525 1051.31 379.584 1051.31 379.643C1051.31 379.687 1051.31 379.732 1051.31 379.776L1051.36 379.967C1051.36 379.967 1051.36 380.048 1051.36 380.085L1051.42 380.291C1051.42 380.291 1051.42 380.357 1051.46 380.386C1051.5 380.416 1051.53 380.592 1051.58 380.688C1051.8 381.181 1052.08 381.649 1052.4 382.085C1052.62 382.38 1052.84 382.667 1053.06 382.961L1053.37 383.402C1053.59 383.695 1053.78 384.003 1053.95 384.322C1054.47 385.307 1054.72 386.411 1054.68 387.523C1054.64 388.635 1054.31 389.717 1053.73 390.663L1053.46 391.068C1053.32 391.292 1053.21 391.542 1053.16 391.803C1053.13 392.031 1053.16 392.261 1053.23 392.479C1053.3 392.696 1053.42 392.895 1053.58 393.061L1052.92 393.231C1052.39 393.378 1052.02 393.495 1052.02 393.495C1051.57 393.456 1051.13 393.456 1050.68 393.495C1050.06 393.691 1049.51 394.046 1049.07 394.525C1049.07 394.525 1046.26 394.864 1045.34 394.047C1044.42 393.231 1041.2 392.951 1041.2 392.951C1041.2 392.951 1040.29 391.171 1039.3 390.619C1038.32 390.067 1035.94 389.045 1035.86 388.5C1035.66 387.924 1035.35 387.391 1034.95 386.926C1034.47 386.822 1033.97 386.763 1033.48 386.75L1033.32 386.485L1031.36 383.093C1031.36 383.093 1028.9 380.217 1027.57 379.945C1026.24 379.673 1029.44 382.998 1029.6 383.152C1029.14 382.827 1028.58 382.695 1028.03 382.787C1027.47 382.878 1026.98 383.184 1026.65 383.638C1025.61 384.8 1028.38 387.529 1030.1 389.037L1030.38 389.28C1030.4 389.431 1030.42 389.581 1030.45 389.729C1031.22 393.768 1035.5 397.262 1035.5 397.262C1035.5 397.262 1035.99 399.52 1037.61 400.072C1038.9 400.506 1045.81 403.64 1049.42 404.265C1049.11 405.045 1048.76 406.855 1050.25 409.518C1050.25 409.518 1050.61 414.241 1049.84 414.859C1049.06 415.477 1049.1 422.318 1049.1 422.318C1049.1 422.318 1046.16 434.228 1049.1 436.759C1049.29 436.919 1049.5 437.048 1049.73 437.141C1049.73 437.325 1049.78 437.517 1049.8 437.715C1049.93 438.907 1049.98 440.143 1049.66 440.658C1048.92 441.82 1049.9 444.969 1049.9 444.969C1049.9 444.969 1047.06 461.057 1048.33 466.737C1049.13 470.98 1049.5 475.293 1049.45 479.61C1049.45 479.61 1049.03 484.605 1051.2 487.622C1051.44 488.335 1051.58 489.077 1051.62 489.829C1051.77 491.271 1052.15 492.681 1052.75 494C1053.24 494.956 1054.22 499.002 1053.38 500.091C1052.54 501.18 1054.29 513.104 1054.29 513.104C1054.29 513.104 1052.89 516.783 1054.29 518.717L1054.34 518.769C1053.5 518.759 1052.68 518.64 1051.87 518.416C1050.3 517.886 1051.48 519.887 1053.34 521.255C1052.53 523.109 1051.41 525.596 1051.03 526.405C1049.41 526.685 1046.19 527.141 1044.3 526.692C1041.7 526.081 1045.42 530.252 1048.93 531.01C1051.41 531.473 1053.93 531.656 1056.45 531.555L1058.71 529.053C1060.54 529.299 1062.39 529.368 1064.24 529.259L1064.04 531.584H1065.37V529.171C1066.21 529.09 1067.07 528.98 1067.97 528.818C1067.97 528.818 1068.02 526.273 1067.86 523.867L1068.68 523.941L1068.8 522.609L1071.69 523.131L1074.29 501.798C1074.29 501.798 1074.58 493.86 1075.21 489.409C1075.84 484.959 1073.87 470.032 1073.87 470.032C1073.87 470.032 1073.73 469.297 1073.59 467.914C1073.45 466.531 1073.59 458.46 1073.59 458.46C1073.59 458.46 1074.64 454.047 1074.44 453.671C1074.23 453.296 1074.5 451.413 1074.5 451.413C1078.92 442.416 1073.49 434.287 1071.6 431.874C1071.71 431.773 1071.77 431.633 1071.78 431.484C1071.79 431.433 1071.79 431.381 1071.78 431.33C1071.48 430.569 1071.13 429.831 1070.72 429.123L1071.83 427.718C1072.21 428.27 1072.48 428.681 1072.48 428.681C1072.48 428.681 1073.67 426.011 1074.87 425.003C1076.07 423.995 1081.82 414.395 1081.82 414.395C1081.82 414.395 1083.16 413.498 1082.45 412.747C1081.75 411.997 1082.12 412.093 1082.12 412.093ZM1064.43 487.806C1064.33 487.495 1064.16 487.214 1063.93 486.989C1063.93 486.989 1063.72 485.518 1063.65 483.627C1064.07 485.098 1064.49 486.165 1064.49 486.165L1064.43 487.806ZM1067.74 522.8C1067.74 522.668 1067.74 522.535 1067.74 522.41H1067.84L1067.74 522.8ZM1068.6 425.415V425.327C1068.59 425.138 1068.62 424.949 1068.7 424.777C1068.78 424.606 1068.91 424.458 1069.06 424.348C1069.14 424.299 1069.21 424.228 1069.25 424.144C1069.29 424.059 1069.31 423.965 1069.3 423.87C1069.27 423.561 1069.15 423.266 1068.96 423.017C1069.1 423.12 1069.54 423.355 1069.83 422.502C1069.88 422.369 1069.9 422.23 1069.9 422.09C1069.83 421.377 1069.54 420.703 1069.07 420.163L1072.24 413.468C1072.59 413.572 1072.95 413.653 1073.3 413.711C1072.47 416.286 1071.79 419.353 1071.79 419.353L1069.33 424.76C1069.5 424.825 1069.65 424.931 1069.76 425.069L1068.6 425.415Z" fill="url(#paint0_linear)"/>
<path d="M1058.04 518.601C1058.04 518.601 1053.91 519.109 1051.9 518.417C1049.89 517.725 1052.52 521.36 1055.23 522.25C1057.15 522.812 1059.12 523.148 1061.12 523.25L1064.3 520.249L1067.68 520.514L1067.1 523.831L1068.15 523.927L1068.55 519.587L1058.04 518.601Z" fill="#444053"/>
<path opacity="0.1" d="M1058.04 518.601C1058.04 518.601 1053.91 519.109 1051.9 518.417C1049.89 517.725 1052.52 521.36 1055.23 522.25C1057.15 522.812 1059.12 523.148 1061.12 523.25L1064.3 520.249L1067.68 520.514L1067.1 523.831L1068.15 523.927L1068.55 519.587L1058.04 518.601Z" fill="black"/>
<path d="M1052.08 526.185C1052.08 526.185 1047.12 527.266 1044.61 526.656C1042.11 526.045 1045.7 530.187 1049.09 530.93C1051.48 531.393 1053.92 531.575 1056.35 531.474L1059.88 527.472L1064.02 527.406L1063.68 531.504H1064.97V526.185H1052.08Z" fill="#444053"/>
<path opacity="0.1" d="M1052.08 526.185C1052.08 526.185 1047.12 527.266 1044.61 526.656C1042.11 526.045 1045.7 530.187 1049.09 530.93C1051.48 531.393 1053.92 531.575 1056.35 531.474L1059.88 527.472L1064.02 527.406L1063.68 531.504H1064.97V526.185H1052.08Z" fill="black"/>
<path d="M1070.39 431.926C1070.39 431.926 1078.87 441.357 1073.79 452.009C1073.79 452.009 1073.52 453.914 1073.72 454.253C1073.91 454.591 1072.91 459.005 1072.91 459.005C1072.91 459.005 1072.77 467.009 1072.91 468.37C1073.05 469.731 1073.18 470.466 1073.18 470.466C1073.18 470.466 1075.08 485.26 1074.47 489.674C1073.85 494.088 1073.58 501.96 1073.58 501.96L1071.07 523.131L1058.05 520.689L1063.93 491.638L1064.14 486.489C1064.14 486.489 1061.7 480.184 1062.78 476.992C1063.86 473.799 1062.51 433.154 1062.51 433.154L1070.39 431.926Z" fill="#444053"/>
<path opacity="0.02" d="M1070.39 431.926C1070.39 431.926 1078.87 441.357 1073.79 452.009C1073.79 452.009 1073.52 453.914 1073.72 454.253C1073.91 454.591 1072.91 459.005 1072.91 459.005C1072.91 459.005 1072.77 467.009 1072.91 468.37C1073.05 469.731 1073.18 470.466 1073.18 470.466C1073.18 470.466 1075.08 485.26 1074.47 489.674C1073.85 494.088 1073.58 501.96 1073.58 501.96L1071.07 523.131L1058.05 520.689L1063.93 491.638L1064.14 486.489C1064.14 486.489 1061.7 480.184 1062.78 476.992C1063.86 473.799 1062.51 433.154 1062.51 433.154L1070.39 431.926Z" fill="black"/>
<path d="M1064.15 477.529C1062.68 480.376 1063.61 487.299 1063.61 487.299C1065.57 488.998 1064.49 503.792 1064.49 503.792C1064.49 503.792 1065.85 518.38 1066.7 520.079C1067.55 521.779 1067.43 528.76 1067.43 528.76C1057.46 530.592 1050.95 526.656 1050.95 526.656C1050.95 526.656 1054.14 519.395 1054.2 519.057C1054.24 518.865 1054.67 519.38 1054.79 519.535L1054.2 518.718C1052.84 516.82 1054.2 513.157 1054.2 513.157C1054.2 513.157 1052.51 501.386 1053.32 500.261C1054.14 499.135 1053.19 495.17 1052.71 494.221C1052.13 492.909 1051.76 491.51 1051.62 490.08C1051.58 489.342 1051.45 488.612 1051.22 487.909C1049.11 484.923 1049.52 479.972 1049.52 479.972C1049.58 475.695 1049.21 471.422 1048.44 467.216C1047.22 461.581 1049.96 445.632 1049.96 445.632C1049.96 445.632 1049.05 442.513 1049.73 441.358C1050.03 440.843 1049.99 439.621 1049.86 438.415C1049.7 436.944 1049.39 435.575 1049.39 435.575L1067.91 432.309C1068.3 432.956 1068.65 433.582 1068.99 434.185C1075.11 445.507 1070.98 449.707 1070.98 449.707L1067.05 461.787C1067.05 461.787 1065.65 474.675 1064.15 477.529Z" fill="#444053"/>
<path d="M1034.82 388.971L1032.17 391.178C1032.17 391.178 1031.65 390.766 1030.96 390.141C1029.29 388.67 1026.62 385.941 1027.62 384.793C1027.78 384.571 1027.97 384.382 1028.2 384.238C1028.42 384.093 1028.68 383.996 1028.94 383.951C1029.21 383.906 1029.48 383.916 1029.74 383.978C1030 384.041 1030.25 384.155 1030.46 384.315C1030.32 384.153 1027.24 380.865 1028.51 381.129C1029.77 381.394 1032.19 384.249 1032.19 384.249L1034.08 387.61L1034.82 388.971Z" fill="#EFB7B9"/>
<path d="M1070.26 425.622L1067.14 426.571L1069.51 430.705L1072.22 427.182L1070.26 425.622Z" fill="#EFB7B9"/>
<path d="M1062.93 386.735C1067.84 386.735 1071.82 382.757 1071.82 377.849C1071.82 372.941 1067.84 368.962 1062.93 368.962C1058.03 368.962 1054.05 372.941 1054.05 377.849C1054.05 382.757 1058.03 386.735 1062.93 386.735Z" fill="#EFB7B9"/>
<path d="M1057.7 381.093C1057.7 381.093 1065.79 393.916 1058.12 395.004C1050.44 396.093 1068.41 403.891 1068.41 403.891L1075.13 397.108C1075.13 397.108 1068.14 385.029 1069.24 380.416C1070.35 375.804 1057.7 381.093 1057.7 381.093Z" fill="#EFB7B9"/>
<path opacity="0.1" d="M1069.01 434.185C1067.22 434.732 1065.39 435.157 1063.54 435.458C1063.54 435.458 1053.54 439.872 1049.9 438.4C1049.74 436.929 1049.43 435.561 1049.43 435.561L1067.91 432.309C1068.32 432.956 1068.69 433.582 1069.01 434.185Z" fill="black"/>
<path d="M1078.21 400.639L1076.4 404.384L1074.36 408.591L1074.07 409.195L1071.65 414.425L1068.57 421.046C1068.57 421.046 1069.66 422.333 1069.31 423.356C1068.96 424.378 1068.49 423.893 1068.43 423.834C1068.49 423.915 1069.17 424.798 1068.56 425.188C1068.38 425.344 1068.25 425.547 1068.18 425.774C1068.1 426.001 1068.1 426.244 1068.16 426.475C1068.16 426.475 1070.66 430.617 1071.14 432.11C1071.62 433.603 1063.54 434.891 1063.54 434.891C1063.54 434.891 1052.08 439.982 1049.23 437.466C1046.37 434.95 1049.23 423.15 1049.23 423.15C1049.23 423.15 1049.23 416.367 1049.96 415.757C1050.7 415.146 1050.36 410.46 1050.36 410.46C1048.4 406.863 1049.75 404.825 1049.75 404.825L1049.21 395.6C1049.21 395.6 1050.09 394.651 1050.77 394.585C1051.2 394.541 1051.63 394.541 1052.06 394.585C1052.06 394.585 1052.42 394.46 1052.94 394.32C1054.03 394.011 1055.83 393.584 1056.47 393.901C1057.42 394.379 1063.53 393.165 1063.53 393.165C1066.16 392.779 1068.81 392.534 1071.46 392.429C1072.37 392.375 1073.28 392.475 1074.16 392.724C1074.75 392.856 1075.29 393.136 1075.75 393.535C1076.2 393.935 1076.55 394.443 1076.75 395.011C1076.65 396.115 1076.94 397.219 1077.57 398.131C1078.67 399.896 1078.21 400.639 1078.21 400.639Z" fill="#FF6484"/>
<path opacity="0.1" d="M1034.82 388.972L1032.17 391.179C1032.17 391.179 1031.65 390.767 1030.96 390.142C1030.74 387.854 1032.69 387.553 1034.07 387.611L1034.82 388.972Z" fill="black"/>
<path d="M1050.38 395.556L1049.23 395.622C1049.23 395.622 1046.51 395.96 1045.63 395.144C1044.75 394.327 1041.63 394.062 1041.63 394.062C1041.63 394.062 1040.75 392.297 1039.8 391.753C1038.85 391.208 1036.54 390.193 1036.47 389.649C1036.28 389.079 1035.98 388.55 1035.59 388.089C1035.59 388.089 1030.5 386.868 1031.25 390.87C1032 394.872 1036.13 398.337 1036.13 398.337C1036.13 398.337 1036.61 400.543 1038.17 401.117C1039.73 401.691 1049.84 406.414 1051.47 405.193C1053.1 403.972 1050.38 395.556 1050.38 395.556Z" fill="#FF6484"/>
<path opacity="0.1" d="M1077.58 398.109C1076.95 397.197 1076.67 396.093 1076.77 394.99C1076.56 394.421 1076.22 393.914 1075.76 393.514C1075.31 393.114 1074.76 392.835 1074.17 392.702C1073.74 392.574 1073.3 392.488 1072.85 392.444C1073.44 392.581 1073.97 392.861 1074.42 393.258C1074.87 393.654 1075.21 394.156 1075.41 394.718C1075.31 395.821 1075.6 396.927 1076.23 397.837C1077.31 399.602 1076.84 400.353 1076.84 400.353L1075.03 404.09L1072.99 408.312L1072.7 408.916L1070.28 414.146L1067.21 420.767C1067.21 420.767 1068.29 422.054 1067.94 423.077C1067.6 424.099 1067.13 423.614 1067.07 423.555C1067.13 423.636 1067.8 424.519 1067.2 424.908C1067.02 425.065 1066.89 425.268 1066.81 425.495C1066.74 425.722 1066.73 425.964 1066.79 426.196C1066.79 426.196 1069.3 430.338 1069.77 431.831C1070.24 433.324 1062.18 434.612 1062.18 434.612C1062.18 434.612 1054.21 438.143 1049.91 437.871C1053.59 439.305 1063.54 434.884 1063.54 434.884C1063.54 434.884 1071.63 433.597 1071.13 432.103C1070.64 430.61 1068.15 426.468 1068.15 426.468C1068.09 426.237 1068.1 425.994 1068.17 425.767C1068.24 425.54 1068.37 425.337 1068.55 425.181C1069.14 424.791 1068.48 423.908 1068.43 423.827C1068.49 423.886 1068.99 424.298 1069.3 423.349C1069.62 422.4 1068.57 421.039 1068.57 421.039L1071.64 414.418L1074.06 409.188L1074.36 408.584L1076.39 404.377L1078.2 400.632C1078.2 400.632 1078.67 399.874 1077.58 398.109Z" fill="black"/>
<path d="M1076.97 399.624L1078.19 400.639C1078.42 401.311 1078.76 401.935 1079.22 402.478C1079.89 403.214 1081.72 410.615 1081.72 410.615C1081.65 410.786 1081.61 410.971 1081.61 411.159C1081.61 411.347 1081.65 411.532 1081.72 411.703C1082 412.248 1081.18 413.064 1081.18 413.064C1081.18 413.064 1080.78 412.925 1081.45 413.675C1082.13 414.425 1080.84 415.301 1080.84 415.301C1080.84 415.301 1075.28 424.798 1074.13 425.82C1072.97 426.843 1071.82 429.499 1071.82 429.499C1071.82 429.499 1069.41 425.703 1068.83 425.629L1071.21 420.266C1071.21 420.266 1072.83 412.807 1074.05 411.439C1075.27 410.07 1073.44 405.399 1073.44 405.399L1076.97 399.624Z" fill="#FF6484"/>
<path opacity="0.1" d="M1077.75 413.462C1076.74 414.683 1074.94 414.933 1073.34 414.764C1073.11 414.764 1072.88 414.705 1072.64 414.661C1072.3 414.595 1071.95 414.514 1071.61 414.418C1070.4 414.069 1069.26 413.508 1068.24 412.763C1068.03 412.57 1067.78 412.422 1067.51 412.329C1067.19 412.291 1066.86 412.353 1066.57 412.507C1066.28 412.661 1066.05 412.899 1065.91 413.19C1065.56 413.741 1065.4 414.389 1065.04 414.941C1064.66 415.459 1064.16 415.878 1063.58 416.163C1063 416.447 1062.36 416.588 1061.71 416.574C1060.42 416.538 1059.14 416.289 1057.93 415.838C1059.02 414.683 1059.84 413.311 1060.36 411.814C1060.58 410.82 1060.65 409.797 1060.55 408.783C1060.26 403.979 1058.59 398.918 1054.67 396.123C1053.99 395.637 1053.2 395.063 1052.95 394.335C1054.03 394.026 1055.84 393.599 1056.48 393.916C1057.43 394.394 1063.54 393.18 1063.54 393.18C1066.17 392.795 1068.82 392.549 1071.47 392.444C1072.38 392.391 1073.29 392.49 1074.16 392.739C1073.72 394.734 1073.65 396.793 1073.94 398.815C1074.22 400.063 1074.67 401.266 1075.28 402.39C1075.63 403.06 1076.02 403.729 1076.38 404.399C1077.41 406.253 1078.4 408.114 1078.58 410.203C1078.74 411.356 1078.44 412.525 1077.75 413.462Z" fill="black"/>
<path opacity="0.1" d="M1064.34 423.025C1064.86 422.888 1065.39 422.841 1065.93 422.886C1066.37 423.018 1066.78 423.255 1067.12 423.577H1063.63C1062.74 423.577 1061.38 423.629 1060.69 422.996C1061.29 422.385 1063.46 423.128 1064.34 423.025Z" fill="black"/>
<path d="M1052.26 376.805C1051.73 377.533 1051.39 378.385 1051.29 379.279C1051.18 380.173 1051.31 381.079 1051.65 381.91C1052.21 383.227 1053.28 384.249 1053.95 385.515C1054.44 386.496 1054.69 387.588 1054.65 388.688C1054.61 389.788 1054.29 390.86 1053.73 391.805C1053.47 392.138 1053.28 392.521 1053.18 392.93C1053.02 393.967 1054.09 394.71 1054.95 395.314C1058.86 398.109 1060.53 403.17 1060.83 407.974C1060.93 408.988 1060.87 410.011 1060.65 411.005C1060.13 412.503 1059.3 413.875 1058.22 415.029C1059.43 415.477 1060.71 415.726 1062 415.765C1062.65 415.775 1063.28 415.632 1063.86 415.347C1064.44 415.062 1064.95 414.643 1065.33 414.124C1065.68 413.58 1065.85 412.932 1066.19 412.373C1066.34 412.082 1066.57 411.843 1066.86 411.689C1067.14 411.535 1067.47 411.473 1067.8 411.513C1068.07 411.608 1068.32 411.755 1068.53 411.947C1070.03 413.047 1071.78 413.736 1073.63 413.948C1075.21 414.131 1077 413.867 1078.04 412.645C1078.73 411.701 1079.03 410.525 1078.87 409.364C1078.52 405.252 1075.04 402.008 1074.24 397.977C1073.58 394.703 1074.76 391.356 1074.97 388.031C1075.3 383.102 1073.5 378.298 1071.74 373.686C1071.35 372.542 1070.84 371.446 1070.2 370.419C1069.42 369.369 1068.43 368.498 1067.29 367.863C1066.15 367.229 1064.88 366.846 1063.58 366.741C1062.62 366.614 1061.64 366.712 1060.72 367.028C1059.81 367.443 1058.98 368.01 1058.26 368.705C1056.59 370.176 1054.86 371.648 1053.85 373.693C1053.45 374.517 1053.2 375.4 1052.76 376.194" fill="#925978"/>
<g opacity="0.1">
<path opacity="0.1" d="M1053.86 375.01C1054.29 374.208 1054.59 373.325 1054.95 372.509C1055.33 371.744 1055.8 371.03 1056.36 370.383C1055.35 371.324 1054.5 372.434 1053.87 373.664C1053.48 374.466 1053.23 375.319 1052.81 376.099L1053.34 375.643C1053.21 375.831 1053.08 376.028 1052.97 376.231C1053.31 375.861 1053.61 375.451 1053.86 375.01Z" fill="black"/>
<path opacity="0.1" d="M1074.72 412.8C1072.88 412.584 1071.12 411.892 1069.63 410.792C1069.41 410.605 1069.16 410.459 1068.89 410.358C1068.57 410.323 1068.24 410.388 1067.95 410.543C1067.67 410.698 1067.44 410.936 1067.29 411.226C1067.22 411.342 1067.15 411.462 1067.1 411.586C1067.33 411.482 1067.59 411.459 1067.83 411.52C1068.1 411.615 1068.35 411.763 1068.57 411.954C1070.06 413.054 1071.82 413.744 1073.66 413.955C1075.24 414.139 1077.04 413.874 1078.08 412.653C1078.21 412.496 1078.32 412.326 1078.41 412.145C1077.29 412.776 1075.99 413.007 1074.72 412.8Z" fill="black"/>
<path opacity="0.1" d="M1063.07 414.609C1061.78 414.57 1060.5 414.321 1059.29 413.874C1060.37 412.715 1061.2 411.341 1061.71 409.842C1061.94 408.851 1062 407.83 1061.9 406.819C1061.61 402.015 1059.95 396.946 1056.02 394.158C1055.17 393.548 1054.1 392.805 1054.26 391.767C1054.37 391.36 1054.55 390.978 1054.81 390.642C1055.37 389.699 1055.69 388.628 1055.73 387.529C1055.77 386.43 1055.53 385.34 1055.03 384.359C1054.37 383.094 1053.29 382.064 1052.73 380.755C1052.43 380.03 1052.3 379.248 1052.34 378.466C1052.38 377.684 1052.59 376.92 1052.96 376.23C1052.77 376.428 1052.57 376.615 1052.37 376.79C1052.21 377 1052.05 377.202 1051.87 377.393C1051.5 378.081 1051.29 378.844 1051.25 379.625C1051.21 380.407 1051.34 381.187 1051.64 381.91C1052.2 383.226 1053.28 384.249 1053.94 385.514C1054.44 386.496 1054.68 387.588 1054.64 388.688C1054.6 389.788 1054.28 390.86 1053.72 391.804C1053.46 392.137 1053.28 392.521 1053.17 392.93C1053.01 393.967 1054.09 394.71 1054.94 395.313C1058.85 398.109 1060.52 403.17 1060.82 407.974C1060.92 408.987 1060.86 410.011 1060.64 411.005C1060.12 412.503 1059.3 413.874 1058.21 415.029C1059.42 415.477 1060.7 415.725 1061.99 415.764C1062.64 415.775 1063.28 415.632 1063.86 415.346C1064.44 415.061 1064.94 414.642 1065.32 414.124C1065.37 414.05 1065.41 413.977 1065.45 413.903C1064.73 414.352 1063.91 414.596 1063.07 414.609Z" fill="black"/>
</g>
<path d="M533.246 502.269C531.721 502.07 530.259 501.535 528.966 500.702L528.833 500.606C528.94 500.453 529.015 500.28 529.054 500.098C528.872 499.748 528.777 499.36 528.775 498.965C528.78 498.591 528.705 498.22 528.554 497.877V496.038C528.119 495.422 527.901 494.679 527.936 493.926C527.885 492.403 527.826 484.929 527.826 484.929C527.741 484.538 527.723 484.135 527.774 483.738C527.826 482.87 527.826 482.546 527.826 482.546C527.644 482.042 527.589 481.502 527.664 480.972C527.711 480.47 527.57 479.969 527.267 479.566L528.105 475.447C528.105 475.447 528.569 461.234 527.215 456.945C527.215 456.945 527.215 456.945 527.215 456.894C527.326 454.135 525.649 449.537 526.598 446.33C527.546 443.122 527.664 442.431 527.664 442.431C527.664 442.431 523.472 431.918 522.413 429.425C521.804 427.809 521.066 426.244 520.207 424.746C520.138 424.653 520.072 424.564 520.008 424.481L519.898 424.349C520.128 423.969 520.267 423.541 520.302 423.098C520.361 422.362 520.251 421.435 520.817 420.891C521.033 420.716 521.264 420.561 521.508 420.428C521.94 420.145 522.283 419.747 522.499 419.279C522.714 418.81 522.794 418.291 522.729 417.779C522.565 416.972 522.181 416.226 521.619 415.624C521.681 415.264 521.713 414.9 521.714 414.535C521.713 413.707 521.541 412.889 521.211 412.129C520.881 411.37 520.399 410.687 519.795 410.121V409.783C519.803 409.032 519.569 408.299 519.126 407.694L519.28 407.804L519.015 407.576C518.887 407.443 518.741 407.329 518.581 407.237C517.337 406.388 515.883 405.897 514.378 405.819C512.873 405.741 511.376 406.079 510.05 406.796C509.386 407.146 508.816 407.651 508.388 408.267C507.513 409.621 507.734 411.364 507.278 412.902C506.822 414.439 505.807 415.572 504.946 416.852C504.086 418.132 503.372 419.648 503.696 421.141C503.931 422.23 504.696 423.201 504.682 424.305C504.646 424.89 504.405 425.443 504.001 425.868C503.598 426.294 503.057 426.563 502.475 426.629H502.144C503.238 427.291 504.473 427.684 505.748 427.777C505.748 427.88 505.689 427.975 505.667 428.078C504.667 431.963 503.747 436.906 503.747 436.906C503.747 436.906 504.365 441.894 503.078 445.793C501.791 449.692 501.96 457.718 501.96 457.718C501.96 457.718 505.535 455.871 505.763 457.063C505.991 458.255 505.763 458.578 505.763 458.578C506.279 458.851 506.809 459.097 507.351 459.314V459.792L507.189 461.926C507.132 462.367 507.201 462.816 507.388 463.22C507.697 463.816 507.388 465.427 507.388 465.427C507.388 465.427 507.123 465.589 507.388 466.354C507.505 466.974 507.434 467.615 507.182 468.193C507.182 468.193 506.866 472.254 506.807 473.122C506.548 474.258 506.173 475.365 505.689 476.425C505.689 476.425 506.645 477.617 505.689 477.786C504.733 477.955 504.63 479.405 504.63 479.405C504.63 479.405 503.512 480.332 503.512 480.655C500.134 484.414 497.941 489.087 497.209 494.088C497.209 494.088 496.033 495.17 496.202 496.199C496.297 496.781 496.106 496.979 495.922 497.045C496.128 497.045 496.356 497.207 496.253 497.715C496.092 498.583 495.643 500.422 495.643 500.422H495.724C494.805 501.481 493.473 503.254 493.267 504.836V505.027L492.753 506.153L497.165 508.102L497.555 507.506C497.555 507.506 499.511 509.713 501.747 510.214C502.131 510.298 502.523 510.342 502.916 510.346C504.162 510.319 505.392 510.07 506.55 509.61C506.55 509.61 508.168 507.609 503.975 507.227C503.975 507.227 501.519 504.409 501.769 503.218C501.848 502.716 501.899 502.21 501.924 501.702C501.924 501.592 501.924 501.481 501.924 501.378L502.21 501.423L502.262 500.51C502.325 500.435 502.372 500.349 502.401 500.255C502.43 500.162 502.44 500.063 502.431 499.966C502.431 499.591 502.093 499.532 502.431 499.319C502.769 499.105 502.762 499.319 502.762 498.782C502.762 498.245 502.541 498.399 503.041 497.855C503.542 497.31 502.99 496.339 502.99 496.339C503.299 496.108 503.557 495.814 503.746 495.477C503.934 495.14 504.05 494.767 504.086 494.382C504.034 493.249 507.829 486.04 508.609 485.768C509.388 485.496 509.447 484.083 509.447 484.083C509.447 484.083 510.514 484.304 510.845 484.083C511.369 483.496 511.837 482.861 512.242 482.185C512.242 482.185 516.485 471.46 516.544 467.399L516.824 466.479C516.824 466.479 518.442 468.591 518.214 470.106C517.986 471.621 519.457 472.71 519.457 472.71V477.315C519.618 478.117 519.707 478.932 519.721 479.75C519.67 480.486 520.383 481.266 520.111 481.92C519.964 482.507 519.964 483.121 520.111 483.708C520.111 483.708 520.052 485.224 520.111 485.658C520.17 486.092 519.89 491.072 521.347 493.242C521.347 493.242 521.957 494.809 521.347 495.839C520.736 496.869 521.898 497.899 521.898 497.899C521.898 497.899 521.163 499.091 521.898 499.959C522.317 500.505 522.505 501.195 522.42 501.879C522.126 502.982 521.913 504.424 522.42 505.432L522.553 506.984L526.833 506.653V505.792C528.677 506.245 530.588 506.365 532.474 506.145C533.203 506.08 533.911 505.865 534.553 505.514C535.196 505.164 535.76 504.685 536.21 504.108C536.21 504.108 537.931 501.128 533.246 502.269Z" fill="url(#paint1_linear)"/>
<path d="M535.408 504.138C534.975 504.708 534.429 505.181 533.804 505.528C533.178 505.875 532.487 506.088 531.775 506.153C529.952 506.372 528.104 506.25 526.325 505.793V506.661L522.192 506.984L522.067 505.44C521.589 504.424 521.809 502.953 522.104 501.85C522.237 501.328 522.407 500.817 522.611 500.319C522.611 500.319 526.171 497.296 527.355 499.584C527.612 500.052 527.968 500.459 528.399 500.776C529.641 501.601 531.054 502.134 532.532 502.335C537.077 501.173 535.408 504.138 535.408 504.138Z" fill="#FF6484"/>
<path opacity="0.1" d="M524.421 501.173C524.421 501.173 524.421 503.976 526.466 503.924C528.511 503.873 528.79 502.806 528.143 502.085C527.702 501.574 527.322 501.014 527.01 500.415L524.421 501.173Z" fill="black"/>
<path d="M506.77 509.64C505.658 510.097 504.471 510.347 503.269 510.376C502.889 510.371 502.509 510.329 502.137 510.251C499.982 509.765 498.092 507.551 498.092 507.551L497.717 508.147L493.451 506.205L493.937 505.072V504.873C494.135 503.328 495.408 501.555 496.305 500.503C496.812 499.915 497.209 499.532 497.209 499.532L502.357 500.268C502.357 500.268 502.357 500.93 502.357 501.739C502.339 502.247 502.29 502.753 502.21 503.255C501.997 504.439 504.365 507.242 504.365 507.242C508.337 507.624 506.77 509.64 506.77 509.64Z" fill="#FF6484"/>
<path d="M496.526 497.105C496.439 497.128 496.347 497.128 496.261 497.105C496.348 497.089 496.438 497.089 496.526 497.105Z" fill="#444053"/>
<path opacity="0.1" d="M502.3 500.312C502.3 500.312 502.3 500.974 502.3 501.783L496.275 500.82C496.275 500.82 496.275 500.702 496.341 500.511C496.812 499.915 497.209 499.532 497.209 499.532L502.3 500.312Z" fill="black"/>
<path opacity="0.1" d="M528.416 500.746C527.503 502.858 522.082 502.357 522.082 502.357C522.112 502.187 522.125 502.015 522.119 501.842C522.252 501.321 522.422 500.81 522.626 500.312C522.626 500.312 526.187 497.289 527.371 499.577C527.631 500.037 527.987 500.436 528.416 500.746Z" fill="black"/>
<path d="M528.503 500.15C527.966 502.571 522.082 502.034 522.082 502.034C522.197 501.314 522.023 500.579 521.597 499.988C520.861 499.12 521.597 497.936 521.597 497.936C521.597 497.936 520.464 496.913 521.06 495.884C521.656 494.854 521.06 493.294 521.06 493.294C519.663 491.139 519.927 486.173 519.868 485.746C519.81 485.32 519.868 483.804 519.868 483.804C519.726 483.219 519.726 482.609 519.868 482.024C520.133 481.377 519.442 480.619 519.501 479.868C519.493 479.062 519.417 478.257 519.273 477.463V472.88C518.88 472.576 518.567 472.182 518.36 471.731C518.152 471.28 518.057 470.786 518.081 470.29C518.295 468.775 516.728 466.678 516.728 466.678L516.463 467.591C516.404 471.637 512.308 482.303 512.308 482.303C511.918 482.971 511.467 483.601 510.962 484.187C510.639 484.407 509.616 484.187 509.616 484.187C509.616 484.187 509.558 485.592 508.807 485.857C508.057 486.121 504.395 493.301 504.439 494.434C504.41 494.825 504.298 495.206 504.112 495.55C503.926 495.895 503.669 496.197 503.358 496.435C503.358 496.435 503.895 497.406 503.409 497.943C502.924 498.48 503.144 498.319 503.144 498.863C503.144 499.407 503.144 499.187 502.821 499.4C502.497 499.613 502.821 499.672 502.821 500.047C502.835 500.24 502.778 500.432 502.659 500.584L502.608 501.489L496.297 500.481C496.297 500.481 496.724 498.642 496.886 497.782C496.981 497.274 496.761 497.142 496.562 497.112C496.739 497.046 496.923 496.847 496.834 496.273C496.673 495.244 497.805 494.169 497.805 494.169C498.458 489.206 500.538 484.54 503.792 480.737C503.792 480.413 504.865 479.493 504.865 479.493C504.865 479.493 504.976 478.022 505.895 477.875C506.814 477.728 505.895 476.529 505.895 476.529C506.359 475.47 506.719 474.369 506.969 473.24C507.028 472.38 507.329 468.334 507.329 468.334C507.573 467.755 507.642 467.119 507.528 466.502C507.278 465.766 507.528 465.582 507.528 465.582C507.528 465.582 507.837 463.964 507.528 463.375C507.35 462.968 507.286 462.521 507.344 462.081L507.491 459.962L507.719 456.799C507.719 456.799 524.487 453.937 526.318 456.254C526.521 456.54 526.668 456.862 526.752 457.203C528.061 461.47 527.613 475.594 527.613 475.594L526.804 479.692C527.099 480.095 527.236 480.592 527.186 481.09C527.115 481.617 527.171 482.154 527.348 482.657C527.348 482.657 527.348 482.98 527.289 483.841C527.242 484.239 527.262 484.642 527.348 485.033C527.348 485.033 527.399 492.47 527.451 493.986C527.418 494.733 527.627 495.471 528.047 496.09V497.921C528.192 498.263 528.265 498.631 528.26 499.003C528.25 499.399 528.333 499.792 528.503 500.15Z" fill="#444053"/>
<path opacity="0.1" d="M503.269 510.361C502.889 510.357 502.509 510.315 502.137 510.236C499.982 509.75 498.092 507.536 498.092 507.536L497.717 508.132L493.451 506.19L493.937 505.057V504.858L498.349 507.065C498.349 507.065 501.879 508.779 503.269 510.361Z" fill="black"/>
<path opacity="0.1" d="M531.775 506.154C529.952 506.373 528.104 506.251 526.325 505.793V506.661L522.192 506.985L522.067 505.44C523.376 505.44 525.487 505.492 526.399 505.44C528.215 505.434 530.023 505.674 531.775 506.154Z" fill="black"/>
<path opacity="0.1" d="M498.636 495.714C498.85 495.7 499.065 495.728 499.269 495.795C499.48 495.925 499.682 496.07 499.872 496.229C500.014 496.306 500.149 496.395 500.277 496.494C500.431 496.648 500.497 496.876 500.652 497.031C500.946 497.318 501.387 497.259 501.799 497.391C501.844 497.391 501.888 497.391 501.895 497.472C501.895 497.494 501.889 497.516 501.878 497.534C501.866 497.552 501.849 497.567 501.829 497.575C501.733 497.628 501.625 497.656 501.516 497.656C501.407 497.656 501.299 497.628 501.204 497.575C501.015 497.467 500.841 497.333 500.689 497.178C500.389 496.912 500.046 496.701 499.673 496.553C499.166 496.347 498.283 496.295 497.959 495.817C498.174 495.73 498.406 495.695 498.636 495.714Z" fill="black"/>
<path opacity="0.1" d="M498.202 496.847C498.315 496.879 498.423 496.923 498.526 496.979L499.078 497.259C498.686 497.286 498.296 497.199 497.952 497.009C497.828 496.963 497.707 496.906 497.592 496.84C497.794 496.805 498.001 496.808 498.202 496.847Z" fill="black"/>
<path opacity="0.1" d="M498.938 497.796C499.055 497.781 499.174 497.781 499.291 497.796C499.503 497.874 499.697 497.991 499.865 498.142C500.27 498.465 500.774 498.639 501.292 498.635C501.195 498.678 501.089 498.696 500.983 498.686H499.821C499.694 498.705 499.565 498.705 499.438 498.686C499.271 498.649 499.11 498.59 498.96 498.51C498.761 498.421 497.945 498.186 497.937 497.914C497.93 497.642 498.739 497.796 498.938 497.796Z" fill="black"/>
<path opacity="0.1" d="M525.31 499.171C525.665 499.201 526.022 499.201 526.377 499.171C526.754 499.157 527.121 499.04 527.436 498.833C527.745 498.597 527.679 498.347 527.289 498.333C526.92 498.347 526.558 498.435 526.223 498.59C526.049 498.662 525.882 498.749 525.722 498.847C525.649 498.921 525.384 499.179 525.31 499.171Z" fill="black"/>
<path opacity="0.1" d="M526.628 499.761C526.628 499.893 526.458 499.967 526.333 500.011C526.03 500.129 525.71 500.201 525.384 500.224C525.303 500.224 525.075 500.224 525.105 500.099C525.134 499.974 525.473 500.011 525.553 499.996C525.917 499.943 526.275 499.864 526.628 499.761Z" fill="black"/>
<path opacity="0.1" d="M508.558 478.354C508.017 477.976 507.378 477.766 506.718 477.75C507.386 477.71 508.044 477.926 508.558 478.354Z" fill="black"/>
<path opacity="0.1" d="M508.057 476.175C508.542 476.179 509.018 476.313 509.433 476.565L508.977 476.432C508.675 476.336 508.364 476.272 508.05 476.241C507.873 476.241 507.689 476.241 507.513 476.241C507.336 476.241 507.101 476.19 506.895 476.182C507.255 476.182 507.66 476.16 508.057 476.175Z" fill="black"/>
<path opacity="0.1" d="M509.712 477.213C509.867 477.213 510.05 477.309 510.08 477.463C509.695 477.279 509.293 477.131 508.881 477.022C508.653 476.948 507.954 476.639 507.792 476.853C508.373 477.022 509.043 477.081 509.712 477.213Z" fill="black"/>
<path opacity="0.1" d="M511.184 472.423C511.89 472.185 512.527 471.775 513.037 471.231C513.031 471.473 512.966 471.71 512.846 471.92C512.727 472.131 512.558 472.309 512.353 472.438C511.94 472.695 511.48 472.867 511 472.945C510.521 473.029 510.054 473.17 509.609 473.365C509.396 473.468 508.734 474.1 508.521 474.1C508.307 474.1 508.682 473.637 508.778 473.563C509.52 473.068 510.331 472.684 511.184 472.423Z" fill="black"/>
<path opacity="0.1" d="M524.421 479.42C524.193 479.339 521.405 479.876 521.575 479.339C521.685 479.008 522.59 479.133 522.81 479.14C523.358 479.155 523.901 479.249 524.421 479.42Z" fill="black"/>
<path d="M521.383 414.933C521.383 415.385 521.334 415.837 521.236 416.279C520.894 417.818 519.976 419.167 518.67 420.049C517.364 420.931 515.77 421.279 514.215 421.022C512.66 420.765 511.263 419.922 510.31 418.666C509.358 417.41 508.923 415.837 509.094 414.27C509.265 412.703 510.03 411.262 511.231 410.241C512.432 409.221 513.978 408.7 515.552 408.784C517.125 408.869 518.607 409.554 519.691 410.697C520.776 411.841 521.381 413.356 521.383 414.933Z" fill="#FBBEBE"/>
<path d="M518.419 417.464C518.419 417.464 516.426 423.29 517.559 424.474C518.691 425.659 509.417 426.365 509.417 426.365C509.417 426.365 513.293 419.406 512.918 417.677C512.543 415.948 518.419 417.464 518.419 417.464Z" stroke="#123F69" stroke-miterlimit="10"/>
<path opacity="0.1" d="M526.722 457.189C526.73 457.323 526.73 457.458 526.722 457.593C526.612 460.345 521.706 465.899 520.574 464.95C519.441 464.001 511.749 462.198 511.749 462.198C511.749 462.198 510.616 460.418 509.432 460.418C508.757 460.362 508.095 460.193 507.476 459.918L507.704 456.755C507.704 456.755 524.472 453.893 526.303 456.21C526.504 456.506 526.646 456.839 526.722 457.189Z" fill="black"/>
<path d="M526.723 457.108C526.671 458.483 525.413 460.565 524.023 462.184C522.633 463.802 521.141 464.95 520.574 464.494C520.159 464.223 519.709 464.01 519.236 463.861C516.684 462.927 511.734 461.742 511.734 461.742C511.734 461.742 510.602 459.962 509.418 459.962C508.233 459.962 505.961 458.778 505.961 458.778C505.961 458.778 506.182 458.454 505.961 457.27C505.74 456.085 502.284 457.917 502.284 457.917C502.284 457.917 502.122 449.935 503.358 446.051C504.593 442.167 504.005 437.223 504.005 437.223C504.005 437.223 504.895 432.339 505.858 428.469C506.439 426.152 507.049 424.202 507.513 423.901C508.756 423.091 515.22 423.901 515.22 423.901C516.467 423.917 517.711 424.025 518.942 424.224C519.26 424.351 519.532 424.572 519.721 424.857L519.912 425.129C520.76 426.618 521.481 428.176 522.067 429.786C523.097 432.265 527.142 442.726 527.142 442.726C527.142 442.726 527.031 443.462 526.112 446.61C525.193 449.759 526.833 454.357 526.723 457.108Z" fill="#65617D"/>
<path d="M522.09 460.286L524.024 462.184C524.024 462.184 525.805 468.327 523.487 467.782C521.17 467.238 519.235 463.861 519.235 463.861L522.09 460.286Z" fill="#FBBEBE"/>
<path opacity="0.1" d="M526.997 443.189C522.406 443.137 521.222 436.715 521.222 436.715C521.222 436.715 520.898 430.352 520.302 429.168C519.948 428.009 519.767 426.804 519.765 425.592C520.613 427.081 521.334 428.639 521.921 430.249C522.951 432.728 526.997 443.189 526.997 443.189Z" fill="black"/>
<path d="M527.158 442.703C522.568 442.652 521.383 436.229 521.383 436.229C521.383 436.229 521.06 429.866 520.464 428.682C520.109 427.523 519.928 426.318 519.927 425.106C520.775 426.595 521.496 428.153 522.082 429.763C523.112 432.242 527.158 442.703 527.158 442.703Z" fill="#65617D"/>
<path opacity="0.1" d="M518.941 426.872C518.941 426.872 517.595 423.194 515.389 426.872C513.997 429.426 513.221 432.27 513.124 435.178L512.742 445.315C513.095 445.968 513.325 446.682 513.418 447.419C513.418 448.154 514.742 450.361 514.742 450.361C514.742 450.361 515.066 454.621 516.301 455.327L517.493 458.829C517.493 458.829 517.544 461.146 518.353 462.066C518.589 462.4 518.746 462.784 518.812 463.188C518.878 463.591 518.852 464.005 518.735 464.398L523.531 462.72C523.531 462.72 522.986 462.919 523.531 461.47C524.075 460.02 523.207 458.13 523.207 458.13C523.207 458.13 520.133 451.443 519.75 450.472C519.368 449.501 518.838 448.368 519.015 447.235C519.191 446.102 519.059 434.074 519.338 432.242C519.618 430.411 518.941 426.872 518.941 426.872Z" fill="black"/>
<path d="M519.442 426.365C519.442 426.365 518.096 422.687 515.882 426.365C514.494 428.92 513.718 431.764 513.617 434.67L513.242 444.807C513.593 445.462 513.823 446.175 513.918 446.911C513.918 447.647 515.235 449.854 515.235 449.854C515.235 449.854 515.558 454.113 516.801 454.812L517.985 458.321C517.985 458.321 518.044 460.639 518.853 461.558C519.089 461.893 519.246 462.276 519.312 462.68C519.379 463.084 519.352 463.498 519.236 463.89L524.023 462.213C524.023 462.213 523.487 462.412 524.023 460.955C524.56 459.498 523.685 457.6 523.685 457.6C523.685 457.6 520.618 450.913 520.236 449.942C519.853 448.971 519.324 447.838 519.5 446.705C519.677 445.573 519.545 433.545 519.817 431.706C520.089 429.866 519.442 426.365 519.442 426.365Z" fill="#FF6484"/>
<path opacity="0.1" d="M519.538 458.079C519.742 458.105 519.941 458.164 520.126 458.255C520.273 458.329 520.398 458.446 520.545 458.527C520.713 458.624 520.903 458.675 521.097 458.674C520.881 458.685 520.665 458.685 520.45 458.674C520.315 458.684 520.18 458.666 520.052 458.623C519.931 458.566 519.818 458.494 519.714 458.41C519.582 458.312 519.439 458.23 519.287 458.167C519.17 458.123 519.045 458.108 519 457.99C519.182 458.005 519.361 458.034 519.538 458.079Z" fill="black"/>
<path opacity="0.1" d="M521.362 459.528C521.568 459.528 521.766 459.484 521.972 459.469C522.27 459.458 522.567 459.473 522.862 459.513C522.429 459.734 521.94 459.822 521.457 459.763C521.32 459.726 521.175 459.726 521.038 459.763C520.891 459.822 520.449 460.322 520.413 459.881C520.376 459.439 521.111 459.535 521.362 459.528Z" fill="black"/>
<path opacity="0.1" d="M518.883 408.46L518.096 407.886C518.181 407.914 518.262 407.951 518.339 407.996C518.504 408.086 518.654 408.203 518.78 408.342L519.03 408.57L518.883 408.46Z" fill="black"/>
<path opacity="0.1" d="M519.735 424.835C519.592 425.158 519.364 425.435 519.074 425.637C518.9 425.755 518.701 425.831 518.493 425.857C518.2 425.886 517.905 425.856 517.625 425.769C517.266 425.673 516.912 425.557 516.566 425.423C515.887 425.138 515.192 424.893 514.484 424.688C513.955 424.526 513.394 424.5 512.852 424.61C512.311 424.721 511.805 424.965 511.381 425.32C510.697 426.012 510.535 427.086 509.859 427.777C508.947 428.704 507.461 428.645 506.181 428.461L505.88 428.417C506.461 426.1 507.071 424.151 507.535 423.849C508.777 423.04 515.242 423.849 515.242 423.849C516.489 423.865 517.732 423.974 518.963 424.173C519.283 424.308 519.552 424.54 519.735 424.835Z" fill="black"/>
<path opacity="0.1" d="M509.094 414.933C509.09 413.722 509.443 412.536 510.11 411.525C510.777 410.514 511.728 409.723 512.843 409.252C513.959 408.78 515.189 408.648 516.378 408.874C517.568 409.1 518.665 409.672 519.53 410.519C519.53 411.586 519.317 412.726 519.618 413.719C519.991 414.658 520.54 415.518 521.236 416.25C520.901 417.719 520.038 419.014 518.81 419.889C517.583 420.764 516.078 421.158 514.58 420.995C513.081 420.833 511.695 420.125 510.684 419.008C509.673 417.89 509.107 416.44 509.094 414.933Z" fill="black"/>
<path d="M519.03 408.247C517.837 407.164 516.335 406.485 514.735 406.306C513.135 406.126 511.519 406.455 510.116 407.246C509.471 407.6 508.921 408.105 508.513 408.717C507.667 410.064 507.88 411.807 507.439 413.33C506.998 414.853 506.02 415.993 505.189 417.266C504.358 418.538 503.666 420.046 503.983 421.532C504.211 422.614 504.953 423.585 504.939 424.688C504.909 425.303 504.649 425.884 504.21 426.315C503.771 426.746 503.185 426.995 502.571 427.013C503.661 427.685 504.897 428.083 506.174 428.175C507.461 428.359 508.947 428.418 509.851 427.491C510.528 426.8 510.69 425.726 511.374 425.034C511.798 424.679 512.303 424.435 512.845 424.324C513.387 424.214 513.948 424.24 514.477 424.401C515.551 424.652 516.544 425.137 517.618 425.453C517.898 425.54 518.193 425.57 518.486 425.542C519.405 425.417 519.956 424.394 520.015 423.467C520.074 422.731 519.964 421.812 520.508 421.26C520.716 421.085 520.94 420.93 521.177 420.797C521.598 420.508 521.931 420.108 522.14 419.643C522.349 419.177 522.425 418.662 522.361 418.156C522.104 416.331 520.155 415.213 519.611 413.418C519.309 412.388 519.537 411.285 519.523 410.218C519.508 409.151 519.096 407.923 518.088 407.562" fill="#444053"/>
<path opacity="0.1" d="M522.266 418.155C522.016 416.331 520.059 415.213 519.515 413.418C519.214 412.388 519.449 411.284 519.427 410.218C519.441 409.472 519.214 408.742 518.78 408.136L518.934 408.246C518.853 408.165 518.765 408.091 518.677 408.018C518.552 407.887 518.412 407.774 518.258 407.68L517.978 407.488L518.125 407.628L517.971 407.518C518.406 408.123 518.633 408.854 518.618 409.6C518.618 410.666 518.405 411.807 518.706 412.792C519.228 414.565 521.207 415.735 521.457 417.537C521.52 418.044 521.443 418.558 521.234 419.023C521.025 419.489 520.693 419.889 520.273 420.178C520.036 420.311 519.811 420.466 519.603 420.642C519.059 421.186 519.17 422.113 519.111 422.849C519.037 423.776 518.508 424.798 517.588 424.923C517.294 424.949 516.997 424.919 516.713 424.835C515.647 424.555 514.647 424.033 513.573 423.783C513.044 423.62 512.483 423.593 511.94 423.704C511.398 423.814 510.892 424.059 510.469 424.416C509.793 425.1 509.623 426.181 508.947 426.873C508.035 427.792 506.549 427.741 505.27 427.557C504.427 427.462 503.598 427.272 502.799 426.99C502.691 427.001 502.583 427.001 502.475 426.99C503.566 427.66 504.802 428.059 506.079 428.153C507.366 428.337 508.851 428.395 509.756 427.468C510.432 426.777 510.602 425.703 511.278 425.011C511.702 424.656 512.208 424.412 512.75 424.302C513.292 424.191 513.853 424.218 514.382 424.379C515.456 424.629 516.456 425.114 517.522 425.431C517.805 425.519 518.103 425.549 518.397 425.519C519.317 425.394 519.868 424.371 519.92 423.444C519.979 422.709 519.868 421.789 520.412 421.238C520.62 421.062 520.845 420.907 521.082 420.774C521.499 420.487 521.83 420.091 522.038 419.63C522.247 419.168 522.326 418.658 522.266 418.155Z" fill="black"/>
<path opacity="0.1" d="M545.933 506.014C547.109 509.935 531.29 512.473 512.661 511.752C495.959 511.112 482.861 508.037 481.898 504.822C480.934 501.607 492.319 498.989 508.822 498.937C527.23 498.937 544.756 502.093 545.933 506.014Z" fill="#123F69"/>
<path d="M513.176 640.185C513.176 642.089 512.487 643.583 511.11 644.667C509.733 645.751 507.834 646.293 505.412 646.293C502.99 646.293 501.008 645.917 499.465 645.165V641.854C500.441 642.313 501.477 642.675 502.57 642.938C503.674 643.202 504.699 643.334 505.646 643.334C507.033 643.334 508.054 643.07 508.708 642.543C509.372 642.016 509.704 641.308 509.704 640.419C509.704 639.618 509.401 638.939 508.796 638.383C508.19 637.826 506.94 637.167 505.046 636.405C503.093 635.614 501.716 634.711 500.915 633.695C500.114 632.68 499.714 631.459 499.714 630.033C499.714 628.246 500.349 626.84 501.618 625.814C502.888 624.789 504.592 624.276 506.73 624.276C508.781 624.276 510.822 624.726 512.854 625.624L511.74 628.48C509.836 627.68 508.137 627.279 506.643 627.279C505.51 627.279 504.65 627.528 504.064 628.026C503.479 628.515 503.186 629.164 503.186 629.975C503.186 630.531 503.303 631.01 503.537 631.41C503.771 631.801 504.157 632.172 504.694 632.523C505.231 632.875 506.198 633.339 507.595 633.915C509.167 634.569 510.319 635.18 511.052 635.746C511.784 636.312 512.321 636.952 512.663 637.665C513.005 638.378 513.176 639.218 513.176 640.185ZM524.03 646.293C521.511 646.293 519.538 645.561 518.112 644.096C516.696 642.621 515.988 640.595 515.988 638.017C515.988 635.37 516.647 633.29 517.966 631.776C519.284 630.263 521.096 629.506 523.4 629.506C525.539 629.506 527.229 630.155 528.469 631.454C529.709 632.753 530.329 634.54 530.329 636.815V638.676H519.533C519.582 640.248 520.007 641.459 520.808 642.309C521.608 643.148 522.736 643.568 524.191 643.568C525.148 643.568 526.037 643.48 526.857 643.305C527.688 643.119 528.576 642.816 529.523 642.396V645.194C528.684 645.595 527.834 645.878 526.975 646.044C526.115 646.21 525.134 646.293 524.03 646.293ZM523.4 632.113C522.307 632.113 521.428 632.46 520.764 633.153C520.109 633.847 519.719 634.857 519.592 636.186H526.945C526.926 634.848 526.604 633.837 525.979 633.153C525.354 632.46 524.494 632.113 523.4 632.113ZM537.683 646H534.24V623.207H537.683V646ZM549.694 646.293C547.175 646.293 545.202 645.561 543.776 644.096C542.36 642.621 541.652 640.595 541.652 638.017C541.652 635.37 542.312 633.29 543.63 631.776C544.948 630.263 546.76 629.506 549.064 629.506C551.203 629.506 552.893 630.155 554.133 631.454C555.373 632.753 555.993 634.54 555.993 636.815V638.676H545.197C545.246 640.248 545.671 641.459 546.472 642.309C547.272 643.148 548.4 643.568 549.855 643.568C550.812 643.568 551.701 643.48 552.521 643.305C553.352 643.119 554.24 642.816 555.188 642.396V645.194C554.348 645.595 553.498 645.878 552.639 646.044C551.779 646.21 550.798 646.293 549.694 646.293ZM549.064 632.113C547.971 632.113 547.092 632.46 546.428 633.153C545.773 633.847 545.383 634.857 545.256 636.186H552.609C552.59 634.848 552.268 633.837 551.643 633.153C551.018 632.46 550.158 632.113 549.064 632.113ZM566.438 646.293C563.986 646.293 562.121 645.58 560.842 644.154C559.572 642.719 558.938 640.663 558.938 637.987C558.938 635.263 559.602 633.168 560.93 631.703C562.268 630.238 564.196 629.506 566.716 629.506C568.425 629.506 569.963 629.823 571.33 630.458L570.29 633.227C568.835 632.66 567.634 632.377 566.687 632.377C563.884 632.377 562.482 634.237 562.482 637.958C562.482 639.774 562.829 641.142 563.522 642.06C564.226 642.968 565.251 643.422 566.599 643.422C568.132 643.422 569.582 643.041 570.949 642.279V645.282C570.334 645.644 569.675 645.902 568.972 646.059C568.278 646.215 567.434 646.293 566.438 646.293ZM580.793 643.51C581.633 643.51 582.473 643.378 583.312 643.114V645.707C582.932 645.873 582.438 646.01 581.833 646.117C581.237 646.234 580.617 646.293 579.973 646.293C576.711 646.293 575.08 644.574 575.08 641.137V632.406H572.868V630.883L575.241 629.623L576.413 626.195H578.537V629.799H583.151V632.406H578.537V641.078C578.537 641.908 578.742 642.523 579.152 642.924C579.572 643.314 580.119 643.51 580.793 643.51ZM608.903 631.059C608.903 633.295 608.171 635.009 606.706 636.2C605.241 637.392 603.156 637.987 600.451 637.987H598.225V646H594.724V624.584H600.891C603.566 624.584 605.568 625.131 606.896 626.225C608.234 627.318 608.903 628.93 608.903 631.059ZM598.225 635.043H600.085C601.882 635.043 603.2 634.73 604.04 634.105C604.88 633.48 605.3 632.504 605.3 631.176C605.3 629.945 604.924 629.027 604.172 628.422C603.42 627.816 602.248 627.514 600.656 627.514H598.225V635.043ZM621.032 629.506C621.726 629.506 622.297 629.555 622.746 629.652L622.409 632.86C621.921 632.743 621.413 632.685 620.886 632.685C619.509 632.685 618.391 633.134 617.531 634.032C616.682 634.931 616.257 636.098 616.257 637.533V646H612.814V629.799H615.51L615.964 632.655H616.14C616.677 631.688 617.375 630.922 618.234 630.355C619.104 629.789 620.036 629.506 621.032 629.506ZM635.9 646L635.212 643.744H635.095C634.313 644.73 633.527 645.404 632.736 645.766C631.945 646.117 630.93 646.293 629.689 646.293C628.098 646.293 626.853 645.863 625.954 645.004C625.065 644.145 624.621 642.929 624.621 641.356C624.621 639.687 625.241 638.427 626.481 637.577C627.722 636.728 629.611 636.264 632.15 636.186L634.948 636.098V635.233C634.948 634.198 634.704 633.427 634.216 632.919C633.737 632.401 632.99 632.143 631.975 632.143C631.145 632.143 630.349 632.265 629.587 632.509C628.825 632.753 628.093 633.041 627.39 633.373L626.276 630.912C627.155 630.453 628.117 630.106 629.162 629.872C630.207 629.628 631.193 629.506 632.121 629.506C634.182 629.506 635.734 629.955 636.779 630.854C637.834 631.752 638.361 633.163 638.361 635.087V646H635.9ZM630.773 643.656C632.023 643.656 633.024 643.31 633.776 642.616C634.538 641.913 634.919 640.932 634.919 639.672V638.266L632.839 638.354C631.218 638.412 630.036 638.686 629.294 639.174C628.562 639.652 628.195 640.39 628.195 641.386C628.195 642.108 628.41 642.67 628.84 643.07C629.27 643.461 629.914 643.656 630.773 643.656ZM649.699 646.293C647.248 646.293 645.383 645.58 644.104 644.154C642.834 642.719 642.199 640.663 642.199 637.987C642.199 635.263 642.863 633.168 644.191 631.703C645.529 630.238 647.458 629.506 649.978 629.506C651.687 629.506 653.225 629.823 654.592 630.458L653.552 633.227C652.097 632.66 650.896 632.377 649.948 632.377C647.146 632.377 645.744 634.237 645.744 637.958C645.744 639.774 646.091 641.142 646.784 642.06C647.487 642.968 648.513 643.422 649.86 643.422C651.394 643.422 652.844 643.041 654.211 642.279V645.282C653.596 645.644 652.937 645.902 652.233 646.059C651.54 646.215 650.695 646.293 649.699 646.293ZM664.055 643.51C664.895 643.51 665.734 643.378 666.574 643.114V645.707C666.193 645.873 665.7 646.01 665.095 646.117C664.499 646.234 663.879 646.293 663.234 646.293C659.973 646.293 658.342 644.574 658.342 641.137V632.406H656.13V630.883L658.503 629.623L659.675 626.195H661.799V629.799H666.413V632.406H661.799V641.078C661.799 641.908 662.004 642.523 662.414 642.924C662.834 643.314 663.381 643.51 664.055 643.51ZM673.269 646H669.826V629.799H673.269V646ZM669.621 625.507C669.621 624.892 669.787 624.418 670.119 624.086C670.461 623.754 670.944 623.588 671.569 623.588C672.175 623.588 672.644 623.754 672.976 624.086C673.317 624.418 673.488 624.892 673.488 625.507C673.488 626.093 673.317 626.557 672.976 626.898C672.644 627.23 672.175 627.396 671.569 627.396C670.944 627.396 670.461 627.23 670.119 626.898C669.787 626.557 669.621 626.093 669.621 625.507ZM689.089 641.386C689.089 642.968 688.513 644.184 687.36 645.033C686.208 645.873 684.558 646.293 682.409 646.293C680.251 646.293 678.518 645.966 677.209 645.312V642.338C679.113 643.217 680.886 643.656 682.526 643.656C684.646 643.656 685.705 643.017 685.705 641.737C685.705 641.327 685.588 640.985 685.354 640.712C685.119 640.438 684.733 640.155 684.196 639.862C683.659 639.569 682.912 639.237 681.955 638.866C680.09 638.144 678.825 637.421 678.161 636.698C677.507 635.976 677.18 635.038 677.18 633.886C677.18 632.499 677.736 631.425 678.85 630.663C679.973 629.892 681.496 629.506 683.42 629.506C685.324 629.506 687.126 629.892 688.825 630.663L687.712 633.256C685.964 632.533 684.494 632.172 683.303 632.172C681.486 632.172 680.578 632.689 680.578 633.725C680.578 634.232 680.812 634.662 681.281 635.014C681.76 635.365 682.795 635.849 684.387 636.464C685.725 636.981 686.696 637.455 687.302 637.885C687.907 638.314 688.356 638.812 688.649 639.379C688.942 639.936 689.089 640.604 689.089 641.386ZM699.899 646.293C697.38 646.293 695.407 645.561 693.981 644.096C692.565 642.621 691.857 640.595 691.857 638.017C691.857 635.37 692.517 633.29 693.835 631.776C695.153 630.263 696.965 629.506 699.27 629.506C701.408 629.506 703.098 630.155 704.338 631.454C705.578 632.753 706.198 634.54 706.198 636.815V638.676H695.402C695.451 640.248 695.876 641.459 696.677 642.309C697.478 643.148 698.605 643.568 700.061 643.568C701.018 643.568 701.906 643.48 702.727 643.305C703.557 643.119 704.445 642.816 705.393 642.396V645.194C704.553 645.595 703.703 645.878 702.844 646.044C701.984 646.21 701.003 646.293 699.899 646.293ZM699.27 632.113C698.176 632.113 697.297 632.46 696.633 633.153C695.979 633.847 695.588 634.857 695.461 636.186H702.814C702.795 634.848 702.473 633.837 701.848 633.153C701.223 632.46 700.363 632.113 699.27 632.113ZM728.039 646L727.351 643.744H727.233C726.452 644.73 725.666 645.404 724.875 645.766C724.084 646.117 723.068 646.293 721.828 646.293C720.236 646.293 718.991 645.863 718.093 645.004C717.204 644.145 716.76 642.929 716.76 641.356C716.76 639.687 717.38 638.427 718.62 637.577C719.86 636.728 721.75 636.264 724.289 636.186L727.087 636.098V635.233C727.087 634.198 726.843 633.427 726.354 632.919C725.876 632.401 725.129 632.143 724.113 632.143C723.283 632.143 722.487 632.265 721.726 632.509C720.964 632.753 720.231 633.041 719.528 633.373L718.415 630.912C719.294 630.453 720.256 630.106 721.301 629.872C722.346 629.628 723.332 629.506 724.26 629.506C726.32 629.506 727.873 629.955 728.918 630.854C729.973 631.752 730.5 633.163 730.5 635.087V646H728.039ZM722.912 643.656C724.162 643.656 725.163 643.31 725.915 642.616C726.677 641.913 727.058 640.932 727.058 639.672V638.266L724.978 638.354C723.356 638.412 722.175 638.686 721.433 639.174C720.7 639.652 720.334 640.39 720.334 641.386C720.334 642.108 720.549 642.67 720.979 643.07C721.408 643.461 722.053 643.656 722.912 643.656ZM749.558 646H746.101V636.039C746.101 634.789 745.847 633.856 745.339 633.241C744.841 632.626 744.045 632.318 742.951 632.318C741.496 632.318 740.432 632.748 739.758 633.607C739.084 634.467 738.747 635.907 738.747 637.929V646H735.305V629.799H738L738.483 631.923H738.659C739.147 631.151 739.841 630.556 740.739 630.136C741.638 629.716 742.634 629.506 743.728 629.506C747.614 629.506 749.558 631.483 749.558 635.438V646ZM759.812 646.293C757.79 646.293 756.213 645.561 755.08 644.096C753.947 642.631 753.381 640.575 753.381 637.929C753.381 635.272 753.952 633.207 755.095 631.732C756.247 630.248 757.839 629.506 759.87 629.506C761.999 629.506 763.62 630.292 764.733 631.864H764.909C764.743 630.702 764.66 629.784 764.66 629.11V623.207H768.117V646H765.422L764.821 643.876H764.66C763.557 645.487 761.94 646.293 759.812 646.293ZM760.734 643.51C762.15 643.51 763.181 643.114 763.825 642.323C764.47 641.522 764.802 640.229 764.821 638.441V637.958C764.821 635.917 764.489 634.467 763.825 633.607C763.161 632.748 762.121 632.318 760.705 632.318C759.494 632.318 758.562 632.812 757.907 633.798C757.253 634.774 756.926 636.171 756.926 637.987C756.926 639.784 757.243 641.156 757.878 642.104C758.513 643.041 759.465 643.51 760.734 643.51ZM798.615 635.087C798.615 638.622 797.634 641.327 795.671 643.202C793.708 645.067 790.881 646 787.189 646H781.198V624.584H787.819C791.228 624.584 793.879 625.502 795.773 627.338C797.668 629.174 798.615 631.757 798.615 635.087ZM794.924 635.204C794.924 630.077 792.526 627.514 787.731 627.514H784.699V643.056H787.189C792.346 643.056 794.924 640.438 794.924 635.204ZM809.938 646.293C807.419 646.293 805.446 645.561 804.021 644.096C802.604 642.621 801.896 640.595 801.896 638.017C801.896 635.37 802.556 633.29 803.874 631.776C805.192 630.263 807.004 629.506 809.309 629.506C811.447 629.506 813.137 630.155 814.377 631.454C815.617 632.753 816.237 634.54 816.237 636.815V638.676H805.441C805.49 640.248 805.915 641.459 806.716 642.309C807.517 643.148 808.645 643.568 810.1 643.568C811.057 643.568 811.945 643.48 812.766 643.305C813.596 643.119 814.484 642.816 815.432 642.396V645.194C814.592 645.595 813.742 645.878 812.883 646.044C812.023 646.21 811.042 646.293 809.938 646.293ZM809.309 632.113C808.215 632.113 807.336 632.46 806.672 633.153C806.018 633.847 805.627 634.857 805.5 636.186H812.854C812.834 634.848 812.512 633.837 811.887 633.153C811.262 632.46 810.402 632.113 809.309 632.113ZM828.366 646.293C826.315 646.293 824.724 645.556 823.591 644.081H823.386C823.522 645.448 823.591 646.278 823.591 646.571V653.207H820.148V629.799H822.932C823.01 630.102 823.171 630.824 823.415 631.967H823.591C824.665 630.326 826.276 629.506 828.425 629.506C830.446 629.506 832.019 630.238 833.142 631.703C834.274 633.168 834.841 635.224 834.841 637.87C834.841 640.517 834.265 642.582 833.112 644.066C831.97 645.551 830.388 646.293 828.366 646.293ZM827.531 632.318C826.164 632.318 825.163 632.719 824.528 633.52C823.903 634.32 823.591 635.6 823.591 637.357V637.87C823.591 639.843 823.903 641.273 824.528 642.162C825.153 643.041 826.174 643.48 827.59 643.48C828.781 643.48 829.699 642.992 830.344 642.016C830.988 641.039 831.311 639.647 831.311 637.841C831.311 636.024 830.988 634.652 830.344 633.725C829.709 632.787 828.771 632.318 827.531 632.318ZM848.977 646L848.288 643.744H848.171C847.39 644.73 846.604 645.404 845.812 645.766C845.021 646.117 844.006 646.293 842.766 646.293C841.174 646.293 839.929 645.863 839.03 645.004C838.142 644.145 837.697 642.929 837.697 641.356C837.697 639.687 838.317 638.427 839.558 637.577C840.798 636.728 842.688 636.264 845.227 636.186L848.024 636.098V635.233C848.024 634.198 847.78 633.427 847.292 632.919C846.813 632.401 846.066 632.143 845.051 632.143C844.221 632.143 843.425 632.265 842.663 632.509C841.901 632.753 841.169 633.041 840.466 633.373L839.353 630.912C840.231 630.453 841.193 630.106 842.238 629.872C843.283 629.628 844.27 629.506 845.197 629.506C847.258 629.506 848.811 629.955 849.855 630.854C850.91 631.752 851.438 633.163 851.438 635.087V646H848.977ZM843.85 643.656C845.1 643.656 846.101 643.31 846.853 642.616C847.614 641.913 847.995 640.932 847.995 639.672V638.266L845.915 638.354C844.294 638.412 843.112 638.686 842.37 639.174C841.638 639.652 841.271 640.39 841.271 641.386C841.271 642.108 841.486 642.67 841.916 643.07C842.346 643.461 842.99 643.656 843.85 643.656ZM864.46 629.506C865.153 629.506 865.725 629.555 866.174 629.652L865.837 632.86C865.349 632.743 864.841 632.685 864.313 632.685C862.937 632.685 861.818 633.134 860.959 634.032C860.109 634.931 859.685 636.098 859.685 637.533V646H856.242V629.799H858.938L859.392 632.655H859.567C860.104 631.688 860.803 630.922 861.662 630.355C862.531 629.789 863.464 629.506 864.46 629.506ZM875.227 643.51C876.066 643.51 876.906 643.378 877.746 643.114V645.707C877.365 645.873 876.872 646.01 876.267 646.117C875.671 646.234 875.051 646.293 874.406 646.293C871.145 646.293 869.514 644.574 869.514 641.137V632.406H867.302V630.883L869.675 629.623L870.847 626.195H872.971V629.799H877.585V632.406H872.971V641.078C872.971 641.908 873.176 642.523 873.586 642.924C874.006 643.314 874.553 643.51 875.227 643.51ZM894.65 646H891.193V636.01C891.193 634.77 890.959 633.847 890.49 633.241C890.021 632.626 889.289 632.318 888.293 632.318C886.965 632.318 885.988 632.753 885.363 633.622C884.748 634.481 884.44 635.917 884.44 637.929V646H880.998V629.799H883.693L884.177 631.923H884.353C884.802 631.151 885.451 630.556 886.301 630.136C887.16 629.716 888.103 629.506 889.128 629.506C891.618 629.506 893.269 630.355 894.079 632.055H894.313C894.792 631.254 895.466 630.629 896.335 630.18C897.204 629.73 898.2 629.506 899.323 629.506C901.257 629.506 902.663 629.994 903.542 630.971C904.431 631.947 904.875 633.437 904.875 635.438V646H901.433V636.01C901.433 634.77 901.193 633.847 900.715 633.241C900.246 632.626 899.514 632.318 898.518 632.318C897.18 632.318 896.198 632.738 895.573 633.578C894.958 634.408 894.65 635.688 894.65 637.416V646ZM916.755 646.293C914.235 646.293 912.263 645.561 910.837 644.096C909.421 642.621 908.713 640.595 908.713 638.017C908.713 635.37 909.372 633.29 910.69 631.776C912.009 630.263 913.82 629.506 916.125 629.506C918.264 629.506 919.953 630.155 921.193 631.454C922.434 632.753 923.054 634.54 923.054 636.815V638.676H912.258C912.307 640.248 912.731 641.459 913.532 642.309C914.333 643.148 915.461 643.568 916.916 643.568C917.873 643.568 918.762 643.48 919.582 643.305C920.412 643.119 921.301 642.816 922.248 642.396V645.194C921.408 645.595 920.559 645.878 919.699 646.044C918.84 646.21 917.858 646.293 916.755 646.293ZM916.125 632.113C915.031 632.113 914.152 632.46 913.488 633.153C912.834 633.847 912.443 634.857 912.316 636.186H919.67C919.65 634.848 919.328 633.837 918.703 633.153C918.078 632.46 917.219 632.113 916.125 632.113ZM941.218 646H937.761V636.039C937.761 634.789 937.507 633.856 936.999 633.241C936.501 632.626 935.705 632.318 934.611 632.318C933.156 632.318 932.092 632.748 931.418 633.607C930.744 634.467 930.407 635.907 930.407 637.929V646H926.965V629.799H929.66L930.144 631.923H930.319C930.808 631.151 931.501 630.556 932.399 630.136C933.298 629.716 934.294 629.506 935.388 629.506C939.274 629.506 941.218 631.483 941.218 635.438V646ZM952.043 643.51C952.883 643.51 953.723 643.378 954.562 643.114V645.707C954.182 645.873 953.688 646.01 953.083 646.117C952.487 646.234 951.867 646.293 951.223 646.293C947.961 646.293 946.33 644.574 946.33 641.137V632.406H944.118V630.883L946.491 629.623L947.663 626.195H949.787V629.799H954.401V632.406H949.787V641.078C949.787 641.908 949.992 642.523 950.402 642.924C950.822 643.314 951.369 643.51 952.043 643.51ZM971.643 643.51C972.482 643.51 973.322 643.378 974.162 643.114V645.707C973.781 645.873 973.288 646.01 972.683 646.117C972.087 646.234 971.467 646.293 970.822 646.293C967.561 646.293 965.93 644.574 965.93 641.137V632.406H963.718V630.883L966.091 629.623L967.263 626.195H969.387V629.799H974.001V632.406H969.387V641.078C969.387 641.908 969.592 642.523 970.002 642.924C970.422 643.314 970.969 643.51 971.643 643.51ZM991.784 637.87C991.784 640.517 991.105 642.582 989.748 644.066C988.391 645.551 986.501 646.293 984.079 646.293C982.565 646.293 981.228 645.951 980.065 645.268C978.903 644.584 978.01 643.603 977.385 642.323C976.76 641.044 976.447 639.56 976.447 637.87C976.447 635.243 977.121 633.192 978.469 631.718C979.816 630.243 981.716 629.506 984.167 629.506C986.511 629.506 988.366 630.263 989.733 631.776C991.101 633.28 991.784 635.312 991.784 637.87ZM979.992 637.87C979.992 641.61 981.374 643.48 984.138 643.48C986.872 643.48 988.239 641.61 988.239 637.87C988.239 634.169 986.862 632.318 984.108 632.318C982.663 632.318 981.613 632.797 980.959 633.754C980.314 634.711 979.992 636.083 979.992 637.87ZM1007.24 646L1001.09 629.799H1004.72L1008.01 639.218C1008.58 640.8 1008.92 642.079 1009.04 643.056H1009.16C1009.25 642.353 1009.59 641.073 1010.18 639.218L1013.48 629.799H1017.14L1010.96 646H1007.24ZM1023.04 646H1019.6V629.799H1023.04V646ZM1019.4 625.507C1019.4 624.892 1019.56 624.418 1019.89 624.086C1020.24 623.754 1020.72 623.588 1021.34 623.588C1021.95 623.588 1022.42 623.754 1022.75 624.086C1023.09 624.418 1023.26 624.892 1023.26 625.507C1023.26 626.093 1023.09 626.557 1022.75 626.898C1022.42 627.23 1021.95 627.396 1021.34 627.396C1020.72 627.396 1020.24 627.23 1019.89 626.898C1019.56 626.557 1019.4 626.093 1019.4 625.507ZM1035.06 646.293C1032.54 646.293 1030.56 645.561 1029.14 644.096C1027.72 642.621 1027.01 640.595 1027.01 638.017C1027.01 635.37 1027.67 633.29 1028.99 631.776C1030.31 630.263 1032.12 629.506 1034.43 629.506C1036.56 629.506 1038.25 630.155 1039.49 631.454C1040.73 632.753 1041.35 634.54 1041.35 636.815V638.676H1030.56C1030.61 640.248 1031.03 641.459 1031.83 642.309C1032.63 643.148 1033.76 643.568 1035.22 643.568C1036.17 643.568 1037.06 643.48 1037.88 643.305C1038.71 643.119 1039.6 642.816 1040.55 642.396V645.194C1039.71 645.595 1038.86 645.878 1038 646.044C1037.14 646.21 1036.16 646.293 1035.06 646.293ZM1034.43 632.113C1033.33 632.113 1032.45 632.46 1031.79 633.153C1031.13 633.847 1030.74 634.857 1030.62 636.186H1037.97C1037.95 634.848 1037.63 633.837 1037 633.153C1036.38 632.46 1035.52 632.113 1034.43 632.113ZM1058.55 646L1056.46 638.441C1056.2 637.641 1055.74 635.78 1055.08 632.86H1054.95C1054.38 635.497 1053.93 637.367 1053.6 638.471L1051.45 646H1047.64L1043.1 629.799H1046.61L1048.68 637.782C1049.15 639.755 1049.48 641.444 1049.67 642.851H1049.76C1049.86 642.138 1050.01 641.322 1050.2 640.404C1050.41 639.477 1050.58 638.783 1050.73 638.324L1053.19 629.799H1056.97L1059.36 638.324C1059.5 638.803 1059.68 639.535 1059.9 640.521C1060.12 641.508 1060.26 642.274 1060.29 642.821H1060.41C1060.56 641.62 1060.9 639.94 1061.44 637.782L1063.53 629.799H1066.99L1062.42 646H1058.55ZM1087.06 627.279C1085.05 627.279 1083.46 627.992 1082.31 629.418C1081.16 630.844 1080.58 632.812 1080.58 635.321C1080.58 637.948 1081.13 639.936 1082.24 641.283C1083.35 642.631 1084.96 643.305 1087.06 643.305C1087.97 643.305 1088.84 643.217 1089.69 643.041C1090.54 642.855 1091.43 642.621 1092.35 642.338V645.341C1090.67 645.976 1088.76 646.293 1086.63 646.293C1083.5 646.293 1081.09 645.346 1079.41 643.451C1077.73 641.547 1076.89 638.827 1076.89 635.292C1076.89 633.065 1077.3 631.117 1078.11 629.447C1078.93 627.777 1080.11 626.498 1081.65 625.609C1083.2 624.721 1085.01 624.276 1087.09 624.276C1089.27 624.276 1091.3 624.735 1093.15 625.653L1091.89 628.568C1091.17 628.227 1090.4 627.929 1089.59 627.675C1088.79 627.411 1087.95 627.279 1087.06 627.279ZM1106.73 646L1106.04 643.744H1105.92C1105.14 644.73 1104.36 645.404 1103.57 645.766C1102.78 646.117 1101.76 646.293 1100.52 646.293C1098.93 646.293 1097.68 645.863 1096.78 645.004C1095.9 644.145 1095.45 642.929 1095.45 641.356C1095.45 639.687 1096.07 638.427 1097.31 637.577C1098.55 636.728 1100.44 636.264 1102.98 636.186L1105.78 636.098V635.233C1105.78 634.198 1105.53 633.427 1105.05 632.919C1104.57 632.401 1103.82 632.143 1102.8 632.143C1101.97 632.143 1101.18 632.265 1100.42 632.509C1099.66 632.753 1098.92 633.041 1098.22 633.373L1097.11 630.912C1097.99 630.453 1098.95 630.106 1099.99 629.872C1101.04 629.628 1102.02 629.506 1102.95 629.506C1105.01 629.506 1106.56 629.955 1107.61 630.854C1108.66 631.752 1109.19 633.163 1109.19 635.087V646H1106.73ZM1101.6 643.656C1102.85 643.656 1103.85 643.31 1104.61 642.616C1105.37 641.913 1105.75 640.932 1105.75 639.672V638.266L1103.67 638.354C1102.05 638.412 1100.87 638.686 1100.12 639.174C1099.39 639.652 1099.03 640.39 1099.03 641.386C1099.03 642.108 1099.24 642.67 1099.67 643.07C1100.1 643.461 1100.74 643.656 1101.6 643.656ZM1122.21 629.506C1122.91 629.506 1123.48 629.555 1123.93 629.652L1123.59 632.86C1123.1 632.743 1122.59 632.685 1122.07 632.685C1120.69 632.685 1119.57 633.134 1118.71 634.032C1117.86 634.931 1117.44 636.098 1117.44 637.533V646H1114V629.799H1116.69L1117.15 632.655H1117.32C1117.86 631.688 1118.56 630.922 1119.42 630.355C1120.29 629.789 1121.22 629.506 1122.21 629.506ZM1134.02 646.293C1131.5 646.293 1129.53 645.561 1128.1 644.096C1126.69 642.621 1125.98 640.595 1125.98 638.017C1125.98 635.37 1126.64 633.29 1127.96 631.776C1129.27 630.263 1131.09 629.506 1133.39 629.506C1135.53 629.506 1137.22 630.155 1138.46 631.454C1139.7 632.753 1140.32 634.54 1140.32 636.815V638.676H1129.52C1129.57 640.248 1130 641.459 1130.8 642.309C1131.6 643.148 1132.73 643.568 1134.18 643.568C1135.14 643.568 1136.03 643.48 1136.85 643.305C1137.68 643.119 1138.57 642.816 1139.51 642.396V645.194C1138.67 645.595 1137.82 645.878 1136.96 646.044C1136.11 646.21 1135.12 646.293 1134.02 646.293ZM1133.39 632.113C1132.3 632.113 1131.42 632.46 1130.75 633.153C1130.1 633.847 1129.71 634.857 1129.58 636.186H1136.94C1136.92 634.848 1136.59 633.837 1135.97 633.153C1135.34 632.46 1134.48 632.113 1133.39 632.113ZM1151.31 646.293C1148.79 646.293 1146.81 645.561 1145.39 644.096C1143.97 642.621 1143.26 640.595 1143.26 638.017C1143.26 635.37 1143.92 633.29 1145.24 631.776C1146.56 630.263 1148.37 629.506 1150.68 629.506C1152.81 629.506 1154.5 630.155 1155.74 631.454C1156.98 632.753 1157.6 634.54 1157.6 636.815V638.676H1146.81C1146.86 640.248 1147.28 641.459 1148.08 642.309C1148.88 643.148 1150.01 643.568 1151.47 643.568C1152.42 643.568 1153.31 643.48 1154.13 643.305C1154.96 643.119 1155.85 642.816 1156.8 642.396V645.194C1155.96 645.595 1155.11 645.878 1154.25 646.044C1153.39 646.21 1152.41 646.293 1151.31 646.293ZM1150.68 632.113C1149.58 632.113 1148.7 632.46 1148.04 633.153C1147.38 633.847 1146.99 634.857 1146.87 636.186H1154.22C1154.2 634.848 1153.88 633.837 1153.25 633.153C1152.63 632.46 1151.77 632.113 1150.68 632.113ZM1169.73 629.506C1170.43 629.506 1171 629.555 1171.45 629.652L1171.11 632.86C1170.62 632.743 1170.11 632.685 1169.59 632.685C1168.21 632.685 1167.09 633.134 1166.23 634.032C1165.38 634.931 1164.96 636.098 1164.96 637.533V646H1161.52V629.799H1164.21L1164.67 632.655H1164.84C1165.38 631.688 1166.08 630.922 1166.94 630.355C1167.8 629.789 1168.74 629.506 1169.73 629.506ZM1196.8 631.059C1196.8 633.295 1196.07 635.009 1194.61 636.2C1193.14 637.392 1191.06 637.987 1188.35 637.987H1186.12V646H1182.62V624.584H1188.79C1191.47 624.584 1193.47 625.131 1194.8 626.225C1196.13 627.318 1196.8 628.93 1196.8 631.059ZM1186.12 635.043H1187.99C1189.78 635.043 1191.1 634.73 1191.94 634.105C1192.78 633.48 1193.2 632.504 1193.2 631.176C1193.2 629.945 1192.82 629.027 1192.07 628.422C1191.32 627.816 1190.15 627.514 1188.56 627.514H1186.12V635.043ZM1210.85 646L1210.16 643.744H1210.05C1209.26 644.73 1208.48 645.404 1207.69 645.766C1206.9 646.117 1205.88 646.293 1204.64 646.293C1203.05 646.293 1201.8 645.863 1200.91 645.004C1200.02 644.145 1199.57 642.929 1199.57 641.356C1199.57 639.687 1200.19 638.427 1201.43 637.577C1202.67 636.728 1204.56 636.264 1207.1 636.186L1209.9 636.098V635.233C1209.9 634.198 1209.66 633.427 1209.17 632.919C1208.69 632.401 1207.94 632.143 1206.93 632.143C1206.1 632.143 1205.3 632.265 1204.54 632.509C1203.78 632.753 1203.04 633.041 1202.34 633.373L1201.23 630.912C1202.11 630.453 1203.07 630.106 1204.11 629.872C1205.16 629.628 1206.14 629.506 1207.07 629.506C1209.13 629.506 1210.69 629.955 1211.73 630.854C1212.79 631.752 1213.31 633.163 1213.31 635.087V646H1210.85ZM1205.72 643.656C1206.97 643.656 1207.98 643.31 1208.73 642.616C1209.49 641.913 1209.87 640.932 1209.87 639.672V638.266L1207.79 638.354C1206.17 638.412 1204.99 638.686 1204.25 639.174C1203.51 639.652 1203.15 640.39 1203.15 641.386C1203.15 642.108 1203.36 642.67 1203.79 643.07C1204.22 643.461 1204.87 643.656 1205.72 643.656ZM1224.15 643.51C1224.99 643.51 1225.83 643.378 1226.67 643.114V645.707C1226.29 645.873 1225.8 646.01 1225.19 646.117C1224.6 646.234 1223.98 646.293 1223.33 646.293C1220.07 646.293 1218.44 644.574 1218.44 641.137V632.406H1216.23V630.883L1218.6 629.623L1219.77 626.195H1221.9V629.799H1226.51V632.406H1221.9V641.078C1221.9 641.908 1222.1 642.523 1222.51 642.924C1222.93 643.314 1223.48 643.51 1224.15 643.51ZM1244.18 646H1240.72V636.039C1240.72 634.789 1240.47 633.856 1239.96 633.241C1239.46 632.626 1238.66 632.318 1237.57 632.318C1236.12 632.318 1235.06 632.753 1234.38 633.622C1233.7 634.481 1233.37 635.927 1233.37 637.958V646H1229.92V623.207H1233.37V628.993C1233.37 629.921 1233.31 630.912 1233.19 631.967H1233.41C1233.88 631.186 1234.53 630.58 1235.36 630.15C1236.2 629.721 1237.17 629.506 1238.29 629.506C1242.21 629.506 1244.18 631.483 1244.18 635.438V646ZM1259.85 641.386C1259.85 642.968 1259.27 644.184 1258.12 645.033C1256.97 645.873 1255.32 646.293 1253.17 646.293C1251.01 646.293 1249.28 645.966 1247.97 645.312V642.338C1249.88 643.217 1251.65 643.656 1253.29 643.656C1255.41 643.656 1256.47 643.017 1256.47 641.737C1256.47 641.327 1256.35 640.985 1256.12 640.712C1255.88 640.438 1255.5 640.155 1254.96 639.862C1254.42 639.569 1253.67 639.237 1252.72 638.866C1250.85 638.144 1249.59 637.421 1248.92 636.698C1248.27 635.976 1247.94 635.038 1247.94 633.886C1247.94 632.499 1248.5 631.425 1249.61 630.663C1250.73 629.892 1252.26 629.506 1254.18 629.506C1256.09 629.506 1257.89 629.892 1259.59 630.663L1258.47 633.256C1256.73 632.533 1255.26 632.172 1254.06 632.172C1252.25 632.172 1251.34 632.689 1251.34 633.725C1251.34 634.232 1251.57 634.662 1252.04 635.014C1252.52 635.365 1253.56 635.849 1255.15 636.464C1256.49 636.981 1257.46 637.455 1258.06 637.885C1258.67 638.314 1259.12 638.812 1259.41 639.379C1259.7 639.936 1259.85 640.604 1259.85 641.386Z" fill="#0D2F4F"/>
<defs>
<linearGradient id="paint0_linear" x1="1054.57" y1="531.584" x2="1054.57" y2="365.291" gradientUnits="userSpaceOnUse">
<stop stop-color="#808080" stop-opacity="0.25"/>
<stop offset="0.54" stop-color="#808080" stop-opacity="0.12"/>
<stop offset="1" stop-color="#808080" stop-opacity="0.1"/>
</linearGradient>
<linearGradient id="paint1_linear" x1="4987.08" y1="76061.9" x2="4987.08" y2="61201.9" gradientUnits="userSpaceOnUse">
<stop stop-color="#808080" stop-opacity="0.25"/>
<stop offset="0.54" stop-color="#808080" stop-opacity="0.12"/>
<stop offset="1" stop-color="#808080" stop-opacity="0.1"/>
</linearGradient>
</defs>
</svg>