<svg width="10" height="14" viewBox="0 0 10 14" fill="none" xmlns="http://www.w3.org/2000/svg">
<path d="M3.66667 13.6666C2.64444 13.6666 1.77778 13.311 1.06667 12.5999C0.355556 11.8888 0 11.0221 0 9.99992V2.99992C0 2.26659 0.261111 1.63881 0.783333 1.11659C1.30556 0.594363 1.93333 0.333252 2.66667 0.333252C3.4 0.333252 4.02778 0.594363 4.55 1.11659C5.07222 1.63881 5.33333 2.26659 5.33333 2.99992V8.33325H4.33333V2.99992C4.33333 2.53325 4.17222 2.13881 3.85 1.81659C3.52778 1.49436 3.13333 1.33325 2.66667 1.33325C2.2 1.33325 1.80556 1.49436 1.48333 1.81659C1.16111 2.13881 1 2.53325 1 2.99992V9.99992C1 10.7333 1.26111 11.361 1.78333 11.8833C2.30556 12.4055 2.93333 12.6666 3.66667 12.6666C3.98889 12.6666 4.29167 12.6138 4.575 12.5083C4.85833 12.4027 5.11111 12.2555 5.33333 12.0666V13.2666C5.07778 13.3888 4.81111 13.486 4.53333 13.5583C4.25556 13.6305 3.96667 13.6666 3.66667 13.6666ZM6.66667 12.9999V10.9999H4.66667V9.66658H6.66667V7.66658H8V9.66658H10V10.9999H8V12.9999H6.66667ZM3.66667 9.99992V10.9999C3.2 10.9999 2.80556 10.8388 2.48333 10.5166C2.16111 10.1944 2 9.79992 2 9.33325V2.99992H3V9.33325C3 9.52214 3.06389 9.68047 3.19167 9.80825C3.31944 9.93603 3.47778 9.99992 3.66667 9.99992ZM6.33333 6.33325V2.99992H7.33333V6.33325H6.33333Z" fill="#1C1B1F"/>
</svg>
