<svg width="24" height="24" viewBox="0 0 24 24" fill="none" xmlns="http://www.w3.org/2000/svg">
<path fill-rule="evenodd" clip-rule="evenodd" d="M17.0527 2H6.94743C6.42512 2 6.00006 2.44867 6.00006 3C6.00006 3.55132 6.42512 4 6.94743 4H7.26368V4.42628C7.26368 6.81995 8.14662 9.06995 9.74989 10.7626L10.0673 11.0976C10.2924 11.3352 10.4216 11.6639 10.4216 11.9999C10.4216 12.336 10.2924 12.6647 10.0676 12.9023L9.75019 13.2373C8.14662 14.9299 7.26368 17.1799 7.26368 19.5737V20H6.94743C6.42512 20 6.00006 20.4487 6.00006 21C6.00006 21.5513 6.42512 22 6.94743 22H17.0527C17.575 22 18.0001 21.5513 18.0001 21C18.0001 20.4487 17.575 20 17.0527 20H16.7374V19.5737C16.7374 17.1803 15.8544 14.9299 14.2508 13.2373L13.9335 12.9023C13.7052 12.6613 13.5795 12.341 13.5795 11.9999C13.5795 11.6589 13.7052 11.3387 13.9335 11.0976L14.2508 10.7626C15.8544 9.06995 16.7374 6.8196 16.7374 4.42628V4H17.0527C17.575 4 18.0001 3.55132 18.0001 3C18.0001 2.44867 17.575 2 17.0527 2ZM7.89528 4H16.1058V4.42628C16.1058 6.64163 15.2885 8.7246 13.8043 10.2913L13.4869 10.6262C13.1393 10.993 12.9479 11.4806 12.9479 11.9999C12.9479 12.5192 13.1393 13.0069 13.4869 13.3737L13.8043 13.7087C15.2885 15.2753 16.1058 17.3582 16.1058 19.5737V19.9999H7.89528V19.5737C7.89528 17.358 8.71253 15.2753 10.1964 13.7087L10.5138 13.3737C10.8618 13.0069 11.0532 12.5189 11.0532 11.9999C11.0532 11.481 10.8618 10.993 10.5141 10.6262L10.1968 10.2913C8.71253 8.7246 7.89528 6.64159 7.89528 4.42628V4ZM14.4893 15.9258C14.9637 16.4453 15.3737 17.8941 15.4529 18.9739C15.4595 19.0662 15.4295 19.1579 15.3698 19.2263C15.3098 19.2947 15.2258 19.3333 15.138 19.3333H8.86392C8.77584 19.3333 8.69213 19.2947 8.63214 19.2266C8.57245 19.1583 8.54214 19.0669 8.5491 18.9743C8.62802 17.8934 8.98641 16.4886 9.5 15.9131C9.5 15.9131 11.4196 12.5 12 12.5C12.5807 12.5 14.0927 15.4785 14.4893 15.9258C14.5468 15.9907 14.4348 15.8661 14.4893 15.9258Z" fill="#5AD12A"/>
<path d="M14.4893 15.9258C14.9637 16.4453 15.3737 17.8941 15.4529 18.9739C15.4595 19.0663 15.4295 19.1579 15.3698 19.2263C15.3098 19.2947 15.2258 19.3333 15.138 19.3333H8.86392C8.77584 19.3333 8.69213 19.2947 8.63214 19.2266C8.57245 19.1583 8.54214 19.0669 8.5491 18.9743C8.62802 17.8934 8.98641 16.4886 9.5 15.9131C9.5 15.9131 11.4196 12.5 12 12.5C12.5807 12.5 14.0927 15.4785 14.4893 15.9258ZM14.4893 15.9258C14.5468 15.9907 14.4348 15.8661 14.4893 15.9258ZM17.0527 2H6.94743C6.42512 2 6.00006 2.44867 6.00006 3C6.00006 3.55132 6.42512 4 6.94743 4H7.26368V4.42628C7.26368 6.81995 8.14662 9.06995 9.74989 10.7626L10.0673 11.0976C10.2924 11.3352 10.4216 11.6639 10.4216 11.9999C10.4216 12.336 10.2924 12.6647 10.0676 12.9023L9.75019 13.2373C8.14662 14.9299 7.26368 17.1799 7.26368 19.5737V20H6.94743C6.42512 20 6.00006 20.4487 6.00006 21C6.00006 21.5513 6.42512 22 6.94743 22H17.0527C17.575 22 18.0001 21.5513 18.0001 21C18.0001 20.4487 17.575 20 17.0527 20H16.7374V19.5737C16.7374 17.1803 15.8544 14.9299 14.2508 13.2373L13.9335 12.9023C13.7052 12.6612 13.5795 12.341 13.5795 11.9999C13.5795 11.6589 13.7052 11.3387 13.9335 11.0976L14.2508 10.7626C15.8544 9.06995 16.7374 6.8196 16.7374 4.42628V4H17.0527C17.575 4 18.0001 3.55132 18.0001 3C18.0001 2.44867 17.575 2 17.0527 2ZM7.89528 4H16.1058V4.42628C16.1058 6.64163 15.2885 8.7246 13.8043 10.2913L13.4869 10.6262C13.1393 10.993 12.9479 11.4806 12.9479 11.9999C12.9479 12.5192 13.1393 13.0069 13.4869 13.3737L13.8043 13.7087C15.2885 15.2753 16.1058 17.3582 16.1058 19.5737V19.9999H7.89528V19.5737C7.89528 17.358 8.71253 15.2753 10.1964 13.7087L10.5138 13.3737C10.8618 13.0069 11.0532 12.5189 11.0532 11.9999C11.0532 11.481 10.8618 10.993 10.5141 10.6262L10.1968 10.2913C8.71253 8.7246 7.89528 6.64159 7.89528 4.42628V4Z" stroke="#5AD12A" stroke-width="0.2"/>
</svg>
