<svg width="16" height="16" viewBox="0 0 16 16" fill="none" xmlns="http://www.w3.org/2000/svg">
<mask id="mask0_1_5236" style="mask-type:alpha" maskUnits="userSpaceOnUse" x="0" y="0" width="16" height="16">
<rect width="16" height="16" fill="white"/>
</mask>
<g mask="url(#mask0_1_5236)">
<path d="M8.00004 14.5332C7.22226 13.8554 6.35004 13.3276 5.38337 12.9499C4.41671 12.5721 3.40004 12.3665 2.33337 12.3332V5.54987C3.40004 5.5832 4.42226 5.80809 5.40004 6.22454C6.37782 6.64143 7.24448 7.19987 8.00004 7.89987C8.7556 7.19987 9.62226 6.64143 10.6 6.22454C11.5778 5.80809 12.6 5.5832 13.6667 5.54987V12.3332C12.6 12.3665 11.5834 12.5721 10.6167 12.9499C9.65004 13.3276 8.77782 13.8554 8.00004 14.5332ZM8.00004 13.2499C8.70004 12.7388 9.44449 12.325 10.2334 12.0085C11.0223 11.6916 11.8334 11.4832 12.6667 11.3832V6.66654C11.8223 6.81098 11.0085 7.09698 10.2254 7.52454C9.44182 7.95254 8.70004 8.51098 8.00004 9.19987C7.30004 8.51098 6.55848 7.95254 5.77537 7.52454C4.99182 7.09698 4.17782 6.81098 3.33337 6.66654V11.3832C4.16671 11.4832 4.97782 11.6916 5.76671 12.0085C6.5556 12.325 7.30004 12.7388 8.00004 13.2499ZM8.00004 5.86654C7.33337 5.86654 6.76404 5.63031 6.29204 5.15787C5.8196 4.68587 5.58337 4.11654 5.58337 3.44987C5.58337 2.7832 5.8196 2.21365 6.29204 1.7412C6.76404 1.2692 7.33337 1.0332 8.00004 1.0332C8.66671 1.0332 9.23604 1.2692 9.70804 1.7412C10.1805 2.21365 10.4167 2.7832 10.4167 3.44987C10.4167 4.11654 10.1805 4.68587 9.70804 5.15787C9.23604 5.63031 8.66671 5.86654 8.00004 5.86654ZM8.00004 4.86654C8.38893 4.86654 8.72226 4.72765 9.00004 4.44987C9.27782 4.17209 9.41671 3.83876 9.41671 3.44987C9.41671 3.06098 9.27782 2.72765 9.00004 2.44987C8.72226 2.17209 8.38893 2.0332 8.00004 2.0332C7.61115 2.0332 7.27782 2.17209 7.00004 2.44987C6.72226 2.72765 6.58337 3.06098 6.58337 3.44987C6.58337 3.83876 6.72226 4.17209 7.00004 4.44987C7.27782 4.72765 7.61115 4.86654 8.00004 4.86654Z" fill="white"/>
</g>
</svg>
