<svg width="24" height="24" viewBox="0 0 24 24" fill="none" xmlns="http://www.w3.org/2000/svg">
<path fill-rule="evenodd" clip-rule="evenodd" d="M17.0527 2H6.94743C6.42512 2 6.00006 2.44867 6.00006 3C6.00006 3.55132 6.42512 4 6.94743 4H7.26368V4.42628C7.26368 6.81995 8.14662 9.06995 9.74989 10.7626L10.0673 11.0976C10.2924 11.3352 10.4216 11.6639 10.4216 11.9999C10.4216 12.336 10.2924 12.6647 10.0676 12.9023L9.75019 13.2373C8.14662 14.9299 7.26368 17.1799 7.26368 19.5737V20H6.94743C6.42512 20 6.00006 20.4487 6.00006 21C6.00006 21.5513 6.42512 22 6.94743 22H17.0527C17.575 22 18.0001 21.5513 18.0001 21C18.0001 20.4487 17.575 20 17.0527 20H16.7374V19.5737C16.7374 17.1803 15.8544 14.9299 14.2508 13.2373L13.9335 12.9023C13.7052 12.6613 13.5795 12.341 13.5795 11.9999C13.5795 11.6589 13.7052 11.3387 13.9335 11.0976L14.2508 10.7626C15.8544 9.06995 16.7374 6.8196 16.7374 4.42628V4H17.0527C17.575 4 18.0001 3.55132 18.0001 3C18.0001 2.44867 17.575 2 17.0527 2ZM7.89528 4H16.1058V4.42628C16.1058 6.64163 15.2885 8.7246 13.8043 10.2913L13.4869 10.6262C13.1393 10.993 12.9479 11.4806 12.9479 11.9999C12.9479 12.5192 13.1393 13.0069 13.4869 13.3737L13.8043 13.7087C15.2885 15.2753 16.1058 17.3582 16.1058 19.5737V19.9999H7.89528V19.5737C7.89528 17.358 8.71253 15.2753 10.1964 13.7087L10.5138 13.3737C10.8618 13.0069 11.0532 12.5189 11.0532 11.9999C11.0532 11.481 10.8618 10.993 10.5141 10.6262L10.1968 10.2913C8.71253 8.7246 7.89528 6.64159 7.89528 4.42628V4ZM14.6688 7.61565C14.6369 7.531 14.5283 7.33331 14.2106 7.33331C12.5698 7.33331 11.8387 6.96229 11.5488 6.74096C11.1872 6.46463 10.7233 6.39229 10.3068 6.54795C9.90921 6.69627 9.61804 7.02628 9.50847 7.45295C9.48004 7.56397 9.47498 7.63596 9.47498 7.63596C9.47024 7.70162 9.48382 7.77264 9.51447 7.8303C9.81037 8.38397 10.1517 8.96795 10.6431 9.48662L10.9601 9.82162C11.4272 10.314 11.6842 10.9692 11.6842 11.6666C11.6842 11.851 11.8257 11.9999 12 11.9999C12.1743 11.9999 12.3158 11.851 12.3158 11.6666C12.3158 10.9697 12.5728 10.3143 13.0396 9.82162L13.3573 9.48627C13.4353 9.40428 13.5369 9.30295 13.6487 9.19229C14.4651 8.38197 14.8084 7.98764 14.6688 7.61565ZM14.4893 16.9258C14.9637 17.4453 15.3737 17.8941 15.4529 18.9739C15.4595 19.0662 15.4295 19.1579 15.3698 19.2263C15.3098 19.2947 15.2258 19.3333 15.138 19.3333H8.86392C8.77584 19.3333 8.69213 19.2947 8.63214 19.2266C8.57245 19.1583 8.54214 19.0669 8.5491 18.9743C8.62802 17.8934 9.03841 17.4444 9.51359 16.9245L9.54065 16.8948C9.59648 16.8337 9.65408 16.7705 9.71311 16.7039C10.1097 16.2566 10.6703 15.9999 11.2507 15.9999H12.751C13.3318 15.9999 13.892 16.2566 14.2886 16.7039C14.3461 16.7687 14.4024 16.8306 14.457 16.8903L14.4882 16.9246L14.4893 16.9258ZM11.991 12.6666C11.8167 12.6666 11.6752 12.8156 11.6752 12.9999V13.3333C11.6752 13.5176 11.8167 13.6666 11.991 13.6666C12.1653 13.6666 12.3067 13.5176 12.3067 13.3333V12.9999C12.3067 12.8156 12.1653 12.6666 11.991 12.6666ZM11.6752 14.6666C11.6752 14.4822 11.8167 14.3333 11.991 14.3333C12.1653 14.3333 12.3067 14.4823 12.3067 14.6666V14.9999C12.3067 15.1843 12.1653 15.3333 11.991 15.3333C11.8167 15.3333 11.6752 15.1843 11.6752 14.9999V14.6666Z" fill="#FAB30B" stroke="#FAB30B" stroke-width="0.2"/>
</svg>
