<svg width="108" height="36" viewBox="0 0 108 36" fill="none" xmlns="http://www.w3.org/2000/svg">
<g clip-path="url(#clip0_1_3280)">
<path d="M6.7478 14.4767L3.95824 27.7339H0L2.78956 14.4707H6.7478V14.4767Z" fill="white"/>
<path d="M9.89555 17.6211C10.154 16.4598 10.336 15.3223 10.4711 14.4766H14.2766C14.1709 15.2151 14.0711 15.9297 13.9125 16.6682H13.9654C14.7259 15.7952 15.6658 15.1018 16.719 14.6368C17.7721 14.1717 18.913 13.9462 20.0613 13.9763C22.4045 13.9763 25.7637 15.2687 24.8828 19.5746L23.1621 27.7397H19.2039L20.6897 20.7121C21.365 17.4365 20.0378 16.6682 18.135 16.6682C16.0796 16.6682 13.7598 18.1214 13.0845 21.3434L11.7455 27.7338H7.78723L9.89555 17.6211Z" fill="white"/>
<path d="M29.1758 17.6211C29.4342 16.4598 29.6163 15.3223 29.7513 14.4766H33.5569C33.4512 15.2151 33.3513 15.9297 33.1928 16.6682H33.2456C34.0062 15.7952 34.9461 15.1018 35.9992 14.6368C37.0524 14.1717 38.1932 13.9462 39.3415 13.9763C41.6848 13.9763 45.044 15.2687 44.1631 19.5746L42.4424 27.7397H38.4841L39.9699 20.7121C40.6453 17.4365 39.318 16.6682 37.4153 16.6682C35.3598 16.6682 33.0401 18.1214 32.3647 21.3434L31.0375 27.7338H27.0792L29.1758 17.6211Z" fill="white"/>
<path d="M63.925 21.1051C63.1674 24.7499 60.5658 28.2399 53.9237 28.2399C47.2816 28.2399 46.1364 24.7559 46.8881 21.1051C47.6692 17.4602 50.2767 13.9702 56.9188 13.9702C63.5609 13.9702 64.7061 17.4602 63.925 21.1051ZM51.0049 21.1051C50.4822 23.6958 51.4454 25.7028 54.4405 25.7028C57.4356 25.7028 59.2855 23.6958 59.8082 21.1051C60.3544 18.5144 59.3677 16.5073 56.3726 16.5073C53.3775 16.5073 51.5511 18.5144 51.0049 21.1051Z" fill="white"/>
<path d="M70.8783 14.4766L73.6679 24.7798L80.7798 14.4766H85.0023L75.3357 27.7398H70.385L66.2682 14.4766H70.8783Z" fill="white"/>
<path d="M99.508 25.2265C99.326 26.096 99.1968 26.8404 99.0911 27.7338H95.4441C95.5027 27.1208 95.5988 26.5122 95.7318 25.9114C93.8521 27.4839 91.4726 28.3095 89.0369 28.234C84.4503 28.234 83.3051 26.0662 83.722 24.1664C84.5795 20.0212 88.6434 19.3066 93.647 19.3066H96.8007C97.294 16.9541 95.7847 16.3466 93.8056 16.3466C91.8793 16.3466 90.599 17.1685 90.2349 18.1929H86.1181C87.2105 14.7862 91.016 13.9644 94.3987 13.9644C98.0692 13.9644 101.64 15.0185 100.677 19.6699L99.508 25.2265ZM93.048 21.6888C90.0529 21.6888 88.2265 22.3201 87.8917 23.9103C87.7097 24.8096 88.1795 26.0245 90.4464 26.0245C92.402 26.0245 95.5791 24.8632 96.3074 21.6948H93.048V21.6888Z" fill="white"/>
<path d="M5.62017 12.9162C7.05377 12.9162 8.21593 11.6896 8.21593 10.1766C8.21593 8.66357 7.05377 7.43701 5.62017 7.43701C4.18657 7.43701 3.02441 8.66357 3.02441 10.1766C3.02441 11.6896 4.18657 12.9162 5.62017 12.9162Z" fill="white"/>
<path d="M46.9586 26.3164C42.4424 30.5568 42.4307 30.5628 42.4307 30.5628L48.0861 27.4182C47.6527 27.1168 47.2717 26.7445 46.9586 26.3164Z" fill="white"/>
<path d="M58.6747 8.97353C58.9381 10.5018 58.6987 12.0755 57.9934 13.4522C60.7008 13.5951 62.445 14.3336 63.4903 15.4354C68.4704 10.7424 71.7474 6.12078 69.7683 2.92857C68.0946 0.212799 62.7856 -0.656723 56.1376 0.498669C53.6124 0.939386 51.2339 1.40393 49.0199 1.88038C43.6404 3.20848 38.3314 4.81055 33.4982 6.41857C40.9566 4.75099 57.0538 2.01736 58.6747 8.97353Z" fill="white"/>
<path d="M45.6783 34.7375C45.7899 35.0769 46.06 35.2973 46.7002 35.2973C47.3051 35.2973 47.4754 35.1127 47.4754 34.8566C47.4754 34.5826 47.2992 34.4337 46.477 34.2908C45.1321 34.0585 44.8855 33.6119 44.8855 33.0878C44.8855 32.3016 45.6313 31.9026 46.5475 31.9026C47.8806 31.9026 48.2388 32.5994 48.2858 33.052H47.3403C47.2874 32.8555 47.1582 32.5934 46.5181 32.5934C46.0718 32.5934 45.8427 32.7364 45.8427 32.9925C45.8427 33.2188 46.0013 33.3319 46.7295 33.4689C48.2036 33.7369 48.4326 34.1896 48.4326 34.7613C48.4326 35.4462 47.9041 35.9941 46.6062 35.9941C45.3905 35.9941 44.8444 35.4462 44.7269 34.7375H45.6783Z" fill="white"/>
<path d="M55.521 33.9335C55.5309 34.2153 55.4819 34.496 55.3774 34.7573C55.2728 35.0185 55.115 35.2544 54.9143 35.4495C54.7136 35.6446 54.4745 35.7946 54.2127 35.8894C53.9509 35.9843 53.6723 36.0221 53.3951 36.0002C53.122 36.0185 52.8481 35.978 52.5915 35.8814C52.3349 35.7848 52.1013 35.6343 51.9061 35.4397C51.7109 35.2451 51.5584 35.0108 51.4588 34.7523C51.3591 34.4937 51.3145 34.2168 51.3279 33.9395C51.3256 33.6625 51.3794 33.3879 51.4857 33.1327C51.5921 32.8775 51.7489 32.6472 51.9464 32.4558C52.144 32.2644 52.3781 32.116 52.6343 32.0199C52.8905 31.9238 53.1634 31.8818 53.4362 31.8967C53.7082 31.8783 53.9809 31.9178 54.237 32.0126C54.4931 32.1075 54.7267 32.2555 54.923 32.4473C55.1193 32.6391 55.2739 32.8704 55.3769 33.1263C55.4799 33.3823 55.529 33.6572 55.521 33.9335ZM52.3204 33.9276C52.3204 34.672 52.6904 35.2557 53.4479 35.2557C54.229 35.2557 54.5285 34.5887 54.5285 33.9455C54.5285 33.2487 54.1938 32.6412 53.4068 32.6412C52.6551 32.6412 52.3204 33.2606 52.3204 33.9276Z" fill="white"/>
<path d="M58.6277 31.98H59.5673V35.1484H61.7402L61.6169 35.9107H58.6277V31.98Z" fill="white"/>
<path d="M65.4636 31.98V34.2074C65.4636 35.0412 65.8982 35.2556 66.3739 35.2556C66.8789 35.2556 67.2195 35.0352 67.2195 34.2074V31.98H68.1592V34.2372C68.1592 35.4283 67.4956 36 66.3445 36C65.2287 36 64.5181 35.4819 64.5181 34.261V31.9859H65.4636V31.98Z" fill="white"/>
<path d="M72.4464 32.7423H71.078V31.98H74.7485V32.7423H73.386V35.9167H72.4464V32.7423Z" fill="white"/>
<path d="M78.6245 31.98V35.9167H77.6848V31.98H78.6245Z" fill="white"/>
<path d="M85.9655 33.9335C85.9753 34.2153 85.9264 34.496 85.8218 34.7573C85.7173 35.0185 85.5595 35.2544 85.3588 35.4495C85.158 35.6446 84.919 35.7946 84.6572 35.8894C84.3953 35.9843 84.1167 36.0221 83.8395 36.0002C83.5664 36.0185 83.2926 35.978 83.0359 35.8814C82.7793 35.7848 82.5457 35.6343 82.3505 35.4397C82.1553 35.2451 82.0029 35.0108 81.9032 34.7523C81.8036 34.4937 81.759 34.2168 81.7723 33.9395C81.7701 33.6625 81.8238 33.3879 81.9302 33.1327C82.0366 32.8775 82.1934 32.6472 82.3909 32.4558C82.5884 32.2644 82.8225 32.116 83.0787 32.0199C83.3349 31.9238 83.6078 31.8818 83.8806 31.8967C84.1526 31.8783 84.4254 31.9178 84.6815 32.0126C84.9375 32.1075 85.1712 32.2555 85.3675 32.4473C85.5638 32.6391 85.7184 32.8704 85.8214 33.1263C85.9244 33.3823 85.9734 33.6572 85.9655 33.9335ZM82.7648 33.9276C82.7648 34.672 83.1348 35.2557 83.8924 35.2557C84.6735 35.2557 84.973 34.5887 84.973 33.9455C84.973 33.2487 84.6382 32.6412 83.8513 32.6412C83.0996 32.6412 82.7648 33.2606 82.7648 33.9276Z" fill="white"/>
<path d="M89.0721 35.9167V31.98H90.188C91.2803 33.6654 91.7149 34.2789 91.9557 34.7493H91.9674C91.9322 34.3384 91.9322 33.5999 91.9322 32.9507V31.98H92.7955V35.9167H91.7501C91.386 35.333 90.141 33.3736 89.912 32.9269H89.9002C89.9354 33.4153 89.9354 33.9692 89.9354 34.6719V35.9167H89.0721Z" fill="white"/>
<path d="M96.7243 34.7375C96.8359 35.0769 97.1061 35.2973 97.7462 35.2973C98.3511 35.2973 98.5214 35.1127 98.5214 34.8566C98.5214 34.5826 98.3452 34.4337 97.523 34.2908C96.1782 34.0585 95.9315 33.6119 95.9315 33.0878C95.9315 32.3016 96.6773 31.9026 97.5935 31.9026C98.9266 31.9026 99.2849 32.5994 99.3318 33.052H98.3863C98.3335 32.8555 98.2043 32.5934 97.5641 32.5934C97.1178 32.5934 96.8888 32.7364 96.8888 32.9925C96.8888 33.2188 97.0473 33.3319 97.7756 33.4689C99.2496 33.7369 99.4787 34.1896 99.4787 34.7613C99.4787 35.4462 98.9501 35.9941 97.6522 35.9941C96.4366 35.9941 95.8904 35.4462 95.7729 34.7375H96.7243Z" fill="white"/>
<path d="M103.584 26.0899H102.691V25.6611H105.011V26.0899H104.124V28.2399H103.59V26.0899H103.584ZM105.234 25.6611H106.091L106.608 27.5491L107.166 25.6611H108V28.2399H107.477V26.0244L106.814 28.2399H106.379L105.721 26.0244V28.2399H105.234V25.6611Z" fill="white"/>
</g>
<defs>
<clipPath id="clip0_1_3280">
<rect width="108" height="36" fill="white"/>
</clipPath>
</defs>
</svg>
