<svg width="300" height="200" viewBox="0 0 300 200" fill="none" xmlns="http://www.w3.org/2000/svg">
<path d="M299.999 199.447H172.379V200H299.999V199.447Z" fill="white"/>
<path d="M290.238 191.425H162.617V191.978H290.238V191.425Z" fill="white"/>
<path d="M249.794 183.403H122.174V183.956H249.794V183.403Z" fill="white"/>
<path d="M91.8353 159.219C91.0615 159.219 90.2797 159.207 89.5124 159.183L89.5298 158.63C90.6316 158.664 91.7561 158.674 92.863 158.659L92.8707 159.212C92.5261 159.217 92.181 159.219 91.8353 159.219ZM96.227 159.091L96.1943 158.538C97.2977 158.474 98.4153 158.383 99.5161 158.269L99.5743 158.819C98.4652 158.934 97.3391 159.026 96.227 159.091H96.227ZM86.1591 159.004C85.0464 158.92 83.922 158.809 82.8169 158.675L82.885 158.126C83.9816 158.259 85.0973 158.369 86.2016 158.453L86.1591 159.004ZM102.905 158.396L102.822 157.849C103.918 157.684 105.023 157.493 106.105 157.28L106.213 157.822C105.123 158.037 104.01 158.23 102.905 158.396ZM79.4939 158.194C78.3947 158.009 77.2851 157.797 76.1961 157.562L76.3145 157.021C77.3952 157.254 78.4962 157.465 79.5871 157.648L79.4939 158.194ZM109.492 157.098L109.358 156.561C110.434 156.297 111.516 156.005 112.574 155.694L112.733 156.224C111.666 156.538 110.576 156.832 109.492 157.098ZM72.9315 156.781C71.8532 156.496 70.7682 156.183 69.7064 155.85L69.8745 155.323C70.9282 155.653 72.0049 155.964 73.0747 156.246L72.9315 156.781ZM115.93 155.204L115.747 154.681C116.791 154.321 117.841 153.932 118.869 153.524L119.076 154.038C118.041 154.449 116.982 154.841 115.93 155.204ZM66.5198 154.77C65.4726 154.389 64.4189 153.977 63.3881 153.546L63.6047 153.036C64.6275 153.463 65.6731 153.872 66.7123 154.251L66.5198 154.77ZM122.158 152.732L121.927 152.229C122.93 151.777 123.938 151.294 124.923 150.795L125.177 151.287C124.184 151.791 123.168 152.277 122.158 152.732ZM128.126 149.706L127.85 149.226C128.812 148.682 129.772 148.109 130.703 147.525L131.001 147.992C130.063 148.581 129.096 149.158 128.126 149.706ZM133.795 146.15L133.476 145.696C134.381 145.069 135.285 144.411 136.162 143.743L136.502 144.182C135.619 144.855 134.708 145.517 133.795 146.15ZM48.7721 145.37C47.8717 144.722 46.9723 144.042 46.0986 143.351L46.4467 142.918C47.3137 143.605 48.2063 144.279 49.0997 144.923L48.7721 145.37ZM139.116 142.094L138.757 141.671C139.601 140.964 140.441 140.228 141.254 139.482L141.632 139.889C140.813 140.64 139.967 141.382 139.116 142.094ZM43.5213 141.212C42.6827 140.484 41.8496 139.727 41.0453 138.961L41.4315 138.561C42.2299 139.322 43.0566 140.073 43.8887 140.796L43.5213 141.212ZM144.045 137.572L143.648 137.183C144.426 136.401 145.196 135.592 145.936 134.778L146.35 135.148C145.605 135.968 144.83 136.784 144.045 137.572ZM38.6758 136.6C37.9064 135.798 37.1466 134.969 36.4174 134.135L36.8388 133.773C37.5624 134.6 38.3164 135.423 39.08 136.219L38.6758 136.6ZM148.542 132.622L148.111 132.271C148.814 131.423 149.506 130.547 150.169 129.668L150.615 130C149.948 130.885 149.25 131.768 148.542 132.622ZM34.275 131.572C33.5841 130.706 32.9038 129.812 32.2529 128.915L32.7056 128.592C33.3516 129.482 34.0267 130.369 34.7124 131.229L34.275 131.572ZM152.566 127.285L152.105 126.975C152.727 126.066 153.336 125.131 153.916 124.195L154.391 124.485C153.807 125.428 153.193 126.37 152.566 127.285ZM30.3558 126.171C29.7479 125.246 29.1531 124.296 28.5874 123.344L29.0679 123.063C29.6293 124.007 30.2197 124.951 30.8229 125.868L30.3558 126.171ZM156.085 121.603L155.597 121.336C156.132 120.375 156.653 119.388 157.144 118.402L157.644 118.647C157.149 119.64 156.624 120.635 156.085 121.603ZM159.064 115.622L158.553 115.4C158.998 114.394 159.424 113.362 159.822 112.336L160.343 112.534C159.942 113.569 159.512 114.608 159.064 115.622ZM24.0924 114.429C23.6647 113.411 23.2552 112.369 22.8752 111.333L23.3996 111.144C23.7766 112.172 24.183 113.206 24.6072 114.216L24.0924 114.429ZM161.476 109.39L160.947 109.216C161.295 108.175 161.623 107.112 161.923 106.055L162.46 106.205C162.158 107.27 161.827 108.342 161.476 109.39ZM21.8007 108.177C21.4688 107.123 21.1569 106.046 20.8737 104.976L21.4133 104.835C21.6943 105.897 22.0039 106.966 22.3332 108.013L21.8007 108.177ZM163.294 102.978L162.751 102.853C163.001 101.787 163.229 100.698 163.43 99.6168L163.978 99.7167C163.776 100.806 163.546 101.903 163.294 102.978ZM20.0969 101.735C19.8643 100.654 19.6537 99.5536 19.4712 98.4624L20.0215 98.3717C20.2027 99.4547 20.4116 100.547 20.6425 101.619L20.0969 101.735ZM164.51 96.4283L163.957 96.3532C164.107 95.2696 164.234 94.1648 164.334 93.0691L164.89 93.1188C164.789 94.2231 164.661 95.3364 164.51 96.4283H164.51ZM18.9976 95.1651C18.866 94.0699 18.758 92.9545 18.6764 91.8499L19.2329 91.8094C19.3137 92.9059 19.421 94.0127 19.5516 95.0997L18.9976 95.1651ZM165.117 89.796L164.559 89.7712C164.609 88.6749 164.634 87.563 164.634 86.4665H165.192C165.192 87.5714 165.167 88.6917 165.117 89.796ZM18.5074 88.5231C18.4883 87.8448 18.4787 87.1527 18.4785 86.4665C18.4785 86.0408 18.4822 85.6159 18.4895 85.1917L19.0474 85.2015C19.04 85.6223 19.0364 86.044 19.0364 86.4665C19.0365 87.1476 19.0462 87.8345 19.065 88.508L18.5074 88.5231ZM19.1798 81.8986L18.623 81.864C18.6926 80.7586 18.7888 79.6421 18.9085 78.5454L19.4631 78.605C19.3442 79.6934 19.249 80.8014 19.1798 81.8986H19.1798ZM164.274 78.5233C164.163 77.4326 164.009 76.9008 163.848 75.8148L164.399 75.7341C164.562 76.8283 164.702 77.6636 164.815 78.7625L164.274 78.5233ZM19.8974 75.3279L19.3461 75.2434C19.517 74.1489 19.7156 73.0458 19.9363 71.9642L20.483 72.0739C20.264 73.1472 20.0669 74.2419 19.8974 75.3279H19.8974ZM163.285 72.5573C163.072 71.4781 162.832 70.3917 162.571 69.3285L163.113 69.1977C163.376 70.2691 163.618 71.3638 163.832 72.4512L163.285 72.5573ZM21.2187 68.8502L20.6776 68.7157C20.9485 67.6441 21.2485 66.5637 21.5694 65.5042L22.1036 65.6633C21.7853 66.7147 21.4876 67.7869 21.2187 68.8502ZM161.708 66.1355C161.397 65.0821 161.057 64.0225 160.698 62.9857L161.225 62.8058C161.587 63.8505 161.93 64.9185 162.244 65.9799L161.708 66.1355ZM23.139 62.5117L22.6128 62.3283C22.9835 61.2824 23.3838 60.2316 23.8024 59.2049L24.3197 59.4124C23.9042 60.4311 23.5069 61.474 23.139 62.5117ZM159.542 59.8853C159.135 58.8671 158.699 57.8453 158.246 56.848L158.755 56.6209C159.211 57.6258 159.65 58.6554 160.06 59.6813L159.542 59.8853ZM25.6428 56.3714L25.1359 56.1404C25.6018 55.1341 26.0977 54.125 26.6098 53.1412L27.1055 53.3948C26.5972 54.3713 26.1052 55.3727 25.6428 56.3714ZM156.812 53.8719C156.312 52.8952 155.783 51.9165 155.239 50.9633L155.725 50.6907C156.273 51.6513 156.806 52.6375 157.309 53.6218L156.812 53.8719ZM28.7046 50.4889L28.2211 50.2128C28.7776 49.2545 29.3644 48.2952 29.9654 47.3619L30.4356 47.6596C29.8392 48.5859 29.2567 49.5379 28.7046 50.4889ZM153.534 48.1279C152.945 47.1972 152.328 46.2701 151.7 45.3722L152.158 45.0569C152.791 45.9617 153.413 46.8959 154.007 47.8337L153.534 48.1279ZM32.2952 44.9125L31.8392 44.5937C32.4823 43.6892 33.1547 42.7876 33.8381 41.9139L34.2788 42.253C33.6007 43.1201 32.9332 44.0148 32.2952 44.9125ZM149.74 42.7017C149.067 41.8284 148.367 40.9603 147.658 40.1216L148.086 39.7662C148.8 40.6115 149.506 41.486 150.183 42.3659L149.74 42.7017ZM36.3823 39.6868L35.9577 39.328C36.6793 38.4873 37.4315 37.6506 38.1933 36.841L38.601 37.2183C37.8452 38.0219 37.0987 38.8524 36.3823 39.6868ZM145.461 37.6375C144.711 36.8285 143.934 36.0267 143.151 35.2547L143.544 34.8622C144.333 35.6403 145.116 36.448 145.872 37.263L145.461 37.6375ZM40.9301 34.8535L40.54 34.458C41.3377 33.6841 42.1632 32.9189 42.9932 32.1838L43.3648 32.5966C42.541 33.326 41.7218 34.0854 40.9301 34.8535V34.8535ZM140.734 32.978C139.913 32.2393 139.065 31.5108 138.214 30.8126L138.569 30.3863C139.427 31.0898 140.281 31.8239 141.109 32.5682L140.734 32.978ZM45.9 30.452L45.5478 30.023C46.4106 29.3261 47.3022 28.6389 48.1982 27.9803L48.5305 28.4247C47.6412 29.0784 46.7563 29.7604 45.9 30.452V30.452ZM51.2503 26.5191L50.939 26.0601C51.8624 25.4439 52.813 24.8406 53.7646 24.2664L54.0544 24.7391C53.1102 25.3089 52.1668 25.9078 51.2503 26.5191ZM56.937 23.0886L56.6692 22.6031C57.6461 22.073 58.6478 21.5586 59.6464 21.0741L59.8915 21.5712C58.9006 22.0519 57.9065 22.5623 56.937 23.0886H56.937ZM124.261 21.8067C123.268 21.3163 122.251 20.8425 121.239 20.3985L121.464 19.8925C122.485 20.3399 123.509 20.8174 124.51 21.3116L124.261 21.8067ZM62.912 20.1901L62.6903 19.6825C63.7112 19.2436 64.7555 18.8228 65.7941 18.4314L65.9922 18.9488C64.9615 19.337 63.9252 19.7546 62.912 20.1901H62.912ZM118.153 19.1294C117.12 18.7321 116.063 18.3531 115.011 18.003L115.189 17.4784C116.249 17.8313 117.314 18.2132 118.355 18.6137L118.153 19.1294ZM69.1344 17.8467L68.9606 17.321C70.0208 16.9763 71.1024 16.6518 72.1753 16.3566L72.3245 16.8896C71.2597 17.1826 70.1864 17.5046 69.1344 17.8467ZM111.827 17.0242C110.763 16.7234 109.678 16.4432 108.602 16.1916L108.73 15.6532C109.815 15.9067 110.908 16.189 111.98 16.492L111.827 17.0242ZM75.5558 16.0793L75.4316 15.54C76.5184 15.2938 77.6255 15.0694 78.722 14.8733L78.8211 15.4176C77.7328 15.6124 76.6343 15.835 75.5558 16.0793ZM105.341 15.5076C104.255 15.3054 103.149 15.1255 102.053 14.9728L102.13 14.425C103.234 14.5788 104.35 14.7601 105.444 14.9638L105.341 15.5076ZM82.1139 14.9056L82.0401 14.3572C83.1443 14.211 84.2673 14.0881 85.3779 13.9922L85.4264 14.5433C84.3243 14.6387 83.2099 14.7605 82.1139 14.9056ZM98.7422 14.5882C97.6434 14.4855 96.525 14.4063 95.4177 14.3533L95.445 13.8006C96.5604 13.8542 97.6873 13.9339 98.7945 14.0373L98.7422 14.5882ZM88.7527 14.3311L88.7293 13.7784C89.7546 13.736 90.7994 13.7144 91.8353 13.7141L92.0878 13.7145L92.0862 14.2678L91.8353 14.2674C90.8073 14.2676 89.7701 14.2891 88.7527 14.3311Z" fill="white"/>
<path d="M217.131 64.5537L215.737 73.959C215.737 73.959 209.6 86.1305 213.505 98.5786L218.526 95.5358C218.526 95.5358 222.431 80.598 222.431 79.4915C222.431 78.385 224.104 65.3836 224.104 65.3836L217.131 64.5537Z" fill="#FFB9B9"/>
<path d="M219.921 94.7058L213.227 99.1318L216.574 115.453C216.574 115.453 217.41 137.583 217.132 138.413C216.853 139.242 211.832 172.991 211.832 172.991C211.832 172.991 217.689 175.757 222.989 174.097C222.989 174.097 228.289 149.201 228.289 142.009L234.425 116.836L243.908 145.605C243.908 145.605 244.466 164.969 245.582 171.331C246.697 177.693 246.697 178.523 246.697 178.523C246.697 178.523 255.623 181.013 257.854 178.523C257.854 178.523 256.739 145.881 255.902 142.562L253.949 103.005L219.921 94.7058Z" fill="#2F2E41"/>
<path d="M214.064 172.991C214.064 172.991 213.506 172.161 211.832 174.374C210.159 176.587 204.859 180.736 204.859 180.736C204.859 180.736 190.355 190.971 201.233 191.525C212.111 192.078 214.064 186.545 214.064 186.545C214.064 186.545 223.268 184.886 223.547 182.949C223.826 181.013 222.431 173.267 222.431 173.267L214.064 172.991Z" fill="#2F2E41"/>
<path d="M247.255 177.97C247.255 177.97 245.302 184.609 245.86 187.375C246.418 190.141 244.744 200.377 252.554 199.547C260.364 198.717 257.854 189.865 257.854 189.865L255.343 178.523L247.255 177.97Z" fill="#2F2E41"/>
<path d="M236.238 33.1567C241.321 33.1567 245.442 29.0696 245.442 24.028C245.442 18.9864 241.321 14.8994 236.238 14.8994C231.154 14.8994 227.033 18.9864 227.033 24.028C227.033 29.0696 231.154 33.1567 236.238 33.1567Z" fill="#FFB9B9"/>
<path d="M230.799 28.869C230.799 28.869 233.588 38.5508 231.357 42.147C229.125 45.7431 246.419 42.7002 247.534 39.3807C247.534 39.3807 241.956 33.295 242.793 27.4858L230.799 28.869Z" fill="#FFB9B9"/>
<path d="M235.26 41.8704C235.26 41.8704 242.895 42.3824 246.609 38.2537L260.363 44.0834L254.506 76.172C254.506 76.172 266.221 103.281 255.622 105.771C245.022 108.26 214.341 105.771 215.735 96.6422C217.13 87.5136 222.709 76.4486 222.709 76.4486C222.709 76.4486 224.103 64.2771 221.035 58.7446C217.967 53.2121 219.919 46.8497 219.919 46.8497L232.197 38.7819C232.197 38.7819 232.75 41.8704 235.26 41.8704Z" fill="#F2BE42"/>
<path d="M223.266 47.1262H219.919C219.919 47.1262 216.014 47.9561 216.851 58.4679L214.898 65.9367C214.898 65.9367 224.661 68.4264 226.055 67.0432C227.45 65.6601 223.266 47.1262 223.266 47.1262Z" fill="#F2BE42"/>
<path d="M263.711 63.7239L262.595 73.4058C262.595 73.4058 263.99 86.1305 259.248 96.089L257.575 101.068C257.575 101.068 255.901 115.453 251.439 115.453C246.976 115.453 251.439 99.1319 251.439 99.1319L253.67 82.811C253.67 82.811 255.343 76.4486 254.228 73.6824C253.112 70.9161 252.833 65.107 252.833 65.107L263.711 63.7239Z" fill="#FFB9B9"/>
<path d="M233.976 18.0548C235.342 17.8429 236.718 17.7075 238.1 17.6492C239.101 17.6071 240.143 17.6138 241.048 18.041C242.412 18.6851 243.176 20.1411 243.676 21.5546C244.176 22.968 244.531 24.4786 245.459 25.6606C247.003 24.0622 247.312 21.6858 247.541 19.484C247.703 17.9354 247.846 16.2841 247.124 14.9016C246.68 14.0501 245.946 13.3865 245.203 12.773C241.655 9.84452 237.149 7.54018 232.581 8.19794L232.474 8.89737C231.695 8.87413 230.915 8.92275 230.144 9.0426L230.307 10.7779L227.881 10.9305L227.788 12.739L225.334 12.8234C225.381 13.5183 225.686 14.1714 226.19 14.6566C225.813 14.9271 225.384 15.1192 224.93 15.2212C225.339 16.7922 225.736 18.3667 226.159 19.9342C226.47 21.0888 226.415 22.109 227.663 21.5455C228.614 21.1164 229.257 19.7521 230.219 19.1884C231.351 18.5243 232.691 18.254 233.976 18.0548Z" fill="#2F2E41"/>
<path d="M256.46 44.3601H260.365C260.365 44.3601 266.78 65.6603 265.665 65.9369C264.549 66.2135 251.439 67.0434 251.439 67.0434L256.46 44.3601Z" fill="#F2BE42"/>
<path d="M90.3604 107.569C102.838 107.569 112.953 97.5371 112.953 85.1622C112.953 72.7874 102.838 62.7556 90.3604 62.7556C77.8827 62.7556 67.7676 72.7874 67.7676 85.1622C67.7676 97.5371 77.8827 107.569 90.3604 107.569Z" fill="#F2BE42"/>
<path d="M104.585 82.9493H92.5912V71.0544H88.1285V82.9493H76.1348V87.3753H88.1285V99.2702H92.5912V87.3753H104.585V82.9493Z" fill="white"/>
<path d="M50.6988 123.012H19.9746V158.513H50.6988V123.012Z" fill="#F2F2F2"/>
<path d="M62.628 158.809H19.6738V116.208H62.628V158.809ZM20.2704 158.217H62.0314V116.8H20.2704V158.217Z" fill="white"/>
<path d="M54.8728 128.633H28.623V129.225H54.8728V128.633Z" fill="white"/>
<path d="M54.8728 135.142H28.623V135.733H54.8728V135.142Z" fill="white"/>
<path d="M54.8728 141.65H28.623V142.242H54.8728V141.65Z" fill="white"/>
<path d="M124.62 6.31665H62.6992V36.7912H124.62V6.31665Z" fill="#F2F2F2"/>
<path d="M137.171 37.0678H62.4199V0H137.171V37.0678ZM62.9778 36.5145H136.613V0.55325H62.9778V36.5145Z" fill="white"/>
<path d="M113.734 15.468H73.5859V16.0213H113.734V15.468Z" fill="white"/>
<path d="M113.734 21.2771H73.5859V21.8304H113.734V21.2771Z" fill="white"/>
<path d="M113.734 27.0862H73.5859V27.6394H113.734V27.0862Z" fill="white"/>
<path d="M174.316 83.2258H147.818V111.165H174.316V83.2258Z" fill="#F2F2F2"/>
<path d="M181.01 111.442H147.539V78.2466H181.01V111.442ZM148.097 110.888H180.452V78.7998H148.097V110.888Z" fill="white"/>
<path d="M170.272 93.3228H151.863V93.876H170.272V93.3228Z" fill="white"/>
<path d="M170.272 96.9189H151.863V97.4722H170.272V96.9189Z" fill="white"/>
<path d="M170.272 100.515H151.863V101.068H170.272V100.515Z" fill="white"/>
<path d="M163.607 36.5144H35.9863V37.0677H163.607V36.5144Z" fill="white"/>
<path d="M199.279 110.888H129.27V111.442H199.279V110.888Z" fill="white"/>
<path d="M82.3041 158.468H0V159.021H82.3041V158.468Z" fill="white"/>
</svg>
