<svg width="24" height="24" viewBox="0 0 24 24" fill="none" xmlns="http://www.w3.org/2000/svg">
<path fill-rule="evenodd" clip-rule="evenodd" d="M17.0527 22H6.94743C6.42512 22 6.00006 21.5513 6.00006 21C6.00006 20.4487 6.42512 20 6.94743 20H7.26368V19.5737C7.26368 17.18 8.14662 14.9301 9.74989 13.2374L10.0673 12.9024C10.2924 12.6648 10.4216 12.3361 10.4216 12.0001C10.4216 11.664 10.2924 11.3353 10.0676 11.0977L9.75019 10.7627C8.14662 9.07008 7.26368 6.82008 7.26368 4.42633V4H6.94743C6.42512 4 6.00006 3.55133 6.00006 3C6.00006 2.44867 6.42512 2 6.94743 2H17.0527C17.575 2 18.0001 2.44867 18.0001 3C18.0001 3.55133 17.575 4 17.0527 4H16.7374V4.42633C16.7374 6.81967 15.8544 9.07008 14.2508 10.7627L13.9335 11.0977C13.7052 11.3387 13.5795 11.659 13.5795 12.0001C13.5795 12.3411 13.7052 12.6613 13.9335 12.9024L14.2508 13.2374C15.8544 14.9301 16.7374 17.1804 16.7374 19.5737V20H17.0527C17.575 20 18.0001 20.4487 18.0001 21C18.0001 21.5513 17.575 22 17.0527 22ZM7.89528 20H16.1058V19.5737C16.1058 17.3584 15.2885 15.2754 13.8043 13.7087L13.4869 13.3738C13.1393 13.007 12.9479 12.5194 12.9479 12.0001C12.9479 11.4808 13.1393 10.9931 13.4869 10.6263L13.8043 10.2913C15.2885 8.72467 16.1058 6.64175 16.1058 4.42633V4.00008H7.89528V4.42633C7.89528 6.642 8.71253 8.72467 10.1964 10.2913L10.5138 10.6263C10.8618 10.9931 11.0532 11.4811 11.0532 12.0001C11.0532 12.519 10.8618 13.007 10.5141 13.3738L10.1968 13.7087C8.71253 15.2754 7.89528 17.3584 7.89528 19.5737V20ZM14.4893 8.07417C14.9637 7.55467 15.3737 6.10592 15.4529 5.02608C15.4595 4.93375 15.4295 4.84208 15.3698 4.77367C15.3098 4.70533 15.2258 4.66667 15.138 4.66667H8.86392C8.77584 4.66667 8.69213 4.70533 8.63214 4.77342C8.57245 4.84175 8.54214 4.93308 8.5491 5.02575C8.62802 6.10658 8.98641 7.51142 9.5 8.08692C9.5 8.08692 11.4196 11.5 12 11.5C12.5807 11.5 14.0927 8.5215 14.4893 8.07417C14.4348 8.13392 14.5468 8.00933 14.4893 8.07417Z" fill="#9499AF"/>
<path d="M14.4893 8.07417C14.9637 7.55467 15.3737 6.10592 15.4529 5.02608C15.4595 4.93375 15.4295 4.84208 15.3698 4.77367C15.3098 4.70533 15.2258 4.66667 15.138 4.66667H8.86392C8.77584 4.66667 8.69213 4.70533 8.63214 4.77342C8.57245 4.84175 8.54214 4.93308 8.5491 5.02575C8.62802 6.10658 8.98641 7.51142 9.5 8.08692C9.5 8.08692 11.4196 11.5 12 11.5C12.5807 11.5 14.0927 8.5215 14.4893 8.07417ZM14.4893 8.07417C14.5468 8.00933 14.4348 8.13392 14.4893 8.07417ZM17.0527 22H6.94743C6.42512 22 6.00006 21.5513 6.00006 21C6.00006 20.4487 6.42512 20 6.94743 20H7.26368V19.5737C7.26368 17.18 8.14662 14.9301 9.74989 13.2374L10.0673 12.9024C10.2924 12.6648 10.4216 12.3361 10.4216 12.0001C10.4216 11.664 10.2924 11.3353 10.0676 11.0977L9.75019 10.7627C8.14662 9.07008 7.26368 6.82008 7.26368 4.42633V4H6.94743C6.42512 4 6.00006 3.55134 6.00006 3C6.00006 2.44867 6.42512 2 6.94743 2H17.0527C17.575 2 18.0001 2.44867 18.0001 3C18.0001 3.55134 17.575 4 17.0527 4H16.7374V4.42633C16.7374 6.81967 15.8544 9.07008 14.2508 10.7627L13.9335 11.0977C13.7052 11.3388 13.5795 11.659 13.5795 12.0001C13.5795 12.3411 13.7052 12.6613 13.9335 12.9024L14.2508 13.2374C15.8544 14.9301 16.7374 17.1804 16.7374 19.5737V20H17.0527C17.575 20 18.0001 20.4487 18.0001 21C18.0001 21.5513 17.575 22 17.0527 22ZM7.89528 20H16.1058V19.5737C16.1058 17.3584 15.2885 15.2754 13.8043 13.7087L13.4869 13.3738C13.1393 13.007 12.9479 12.5194 12.9479 12.0001C12.9479 11.4808 13.1393 10.9931 13.4869 10.6263L13.8043 10.2913C15.2885 8.72467 16.1058 6.64175 16.1058 4.42633V4.00008H7.89528V4.42633C7.89528 6.642 8.71253 8.72467 10.1964 10.2913L10.5138 10.6263C10.8618 10.9931 11.0532 11.4811 11.0532 12.0001C11.0532 12.519 10.8618 13.007 10.5141 13.3738L10.1968 13.7087C8.71253 15.2754 7.89528 17.3584 7.89528 19.5737V20Z" stroke="#9499AF" stroke-width="0.2"/>
</svg>
