<svg width="12" height="12" viewBox="0 0 12 12" fill="none" xmlns="http://www.w3.org/2000/svg">
<path d="M2.83301 9.16732H7.16634V8.16732H2.83301V9.16732ZM2.83301 6.50065H9.16634V5.50065H2.83301V6.50065ZM2.83301 3.83398H9.16634V2.83398H2.83301V3.83398ZM1.53301 11.6673C1.19967 11.6673 0.916341 11.5507 0.683008 11.3173C0.449675 11.084 0.333008 10.8007 0.333008 10.4673V1.53398C0.333008 1.20065 0.449675 0.917318 0.683008 0.683984C0.916341 0.450651 1.19967 0.333984 1.53301 0.333984H10.4663C10.7997 0.333984 11.083 0.450651 11.3163 0.683984C11.5497 0.917318 11.6663 1.20065 11.6663 1.53398V10.4673C11.6663 10.8007 11.5497 11.084 11.3163 11.3173C11.083 11.5507 10.7997 11.6673 10.4663 11.6673H1.53301ZM1.53301 10.6673H10.4663C10.5108 10.6673 10.5552 10.6451 10.5997 10.6006C10.6441 10.5562 10.6663 10.5118 10.6663 10.4673V1.53398C10.6663 1.48954 10.6441 1.4451 10.5997 1.40065C10.5552 1.35621 10.5108 1.33398 10.4663 1.33398H1.53301C1.48856 1.33398 1.44412 1.35621 1.39967 1.40065C1.35523 1.4451 1.33301 1.48954 1.33301 1.53398V10.4673C1.33301 10.5118 1.35523 10.5562 1.39967 10.6006C1.44412 10.6451 1.48856 10.6673 1.53301 10.6673Z" fill="white"/>
</svg>
