<svg width="14" height="10" viewBox="0 0 14 10" fill="none" xmlns="http://www.w3.org/2000/svg">
<path d="M0.200195 9.86615V8.38281C0.200195 8.03837 0.289084 7.73281 0.466862 7.46615C0.64464 7.19948 0.883529 6.98837 1.18353 6.83281C1.81686 6.53281 2.45308 6.29681 3.0922 6.12481C3.73086 5.95237 4.43353 5.86615 5.2002 5.86615C5.96686 5.86615 6.66975 5.95237 7.30886 6.12481C7.94753 6.29681 8.58353 6.53281 9.21686 6.83281C9.51686 6.98837 9.75575 7.19948 9.93353 7.46615C10.1113 7.73281 10.2002 8.03837 10.2002 8.38281V9.86615H0.200195ZM11.5335 9.86615V8.29948C11.5335 7.86615 11.4251 7.45215 11.2082 7.05748C10.9918 6.66326 10.6891 6.3217 10.3002 6.03281C10.7446 6.09948 11.1669 6.20215 11.5669 6.34081C11.9669 6.47992 12.3502 6.64392 12.7169 6.83281C13.0613 7.0217 13.328 7.24126 13.5169 7.49148C13.7058 7.74126 13.8002 8.01059 13.8002 8.29948V9.86615H11.5335ZM5.2002 4.79948C4.55575 4.79948 4.00575 4.56881 3.5502 4.10748C3.09464 3.64659 2.86686 3.09948 2.86686 2.46615C2.86686 1.8217 3.09464 1.2717 3.5502 0.816146C4.00575 0.36059 4.55575 0.132812 5.2002 0.132812C5.84464 0.132812 6.39464 0.36059 6.85019 0.816146C7.30575 1.2717 7.53353 1.8217 7.53353 2.46615C7.53353 3.09948 7.30575 3.64659 6.85019 4.10748C6.39464 4.56881 5.84464 4.79948 5.2002 4.79948ZM10.9502 2.46615C10.9502 3.09948 10.7224 3.64659 10.2669 4.10748C9.81131 4.56881 9.26131 4.79948 8.61686 4.79948C8.5502 4.79948 8.45842 4.79103 8.34153 4.77415C8.22508 4.7577 8.12797 4.73837 8.0502 4.71615C8.31686 4.39392 8.51975 4.04126 8.65886 3.65815C8.79753 3.27459 8.86686 2.87726 8.86686 2.46615C8.86686 2.04392 8.79464 1.64392 8.6502 1.26615C8.50575 0.888368 8.30575 0.538368 8.0502 0.216146C8.13908 0.182812 8.23353 0.16059 8.33353 0.149479C8.43353 0.138368 8.52797 0.132812 8.61686 0.132812C9.26131 0.132812 9.81131 0.36059 10.2669 0.816146C10.7224 1.2717 10.9502 1.8217 10.9502 2.46615ZM1.2002 8.86615H9.2002V8.38281C9.2002 8.24948 9.1642 8.12726 9.0922 8.01615C9.01975 7.90503 8.91131 7.81059 8.76686 7.73281C8.21131 7.45503 7.64464 7.24103 7.06686 7.09081C6.48908 6.94103 5.86686 6.86615 5.2002 6.86615C4.53353 6.86615 3.90864 6.94103 3.32553 7.09081C2.74197 7.24103 2.17797 7.45503 1.63353 7.73281C1.47797 7.81059 1.36686 7.90503 1.3002 8.01615C1.23353 8.12726 1.2002 8.24948 1.2002 8.38281V8.86615ZM5.2002 3.79948C5.56686 3.79948 5.88086 3.66881 6.1422 3.40748C6.40308 3.14659 6.53353 2.83281 6.53353 2.46615C6.53353 2.09948 6.40308 1.78548 6.1422 1.52415C5.88086 1.26326 5.56686 1.13281 5.2002 1.13281C4.83353 1.13281 4.51975 1.26326 4.25886 1.52415C3.99753 1.78548 3.86686 2.09948 3.86686 2.46615C3.86686 2.83281 3.99753 3.14659 4.25886 3.40748C4.51975 3.66881 4.83353 3.79948 5.2002 3.79948Z" fill="white"/>
</svg>
