<svg width="14" height="12" viewBox="0 0 14 12" fill="none" xmlns="http://www.w3.org/2000/svg">
<path d="M0.666992 11.6671V4.16706L5.66699 0.400391L8.88366 2.83372C8.69477 2.86706 8.51144 2.91972 8.33366 2.99172C8.15588 3.06417 7.98366 3.1615 7.81699 3.28372L5.66699 1.65039L1.66699 4.66706V10.6671H4.50033V11.6671H0.666992ZM5.83366 11.6671V10.6004C5.83366 10.4004 5.88655 10.2142 5.99233 10.0417C6.09766 9.86972 6.23366 9.72817 6.40033 9.61706C6.90033 9.32817 7.42544 9.10884 7.97566 8.95906C8.52544 8.80884 9.08921 8.73372 9.66699 8.73372C10.2448 8.73372 10.8088 8.80884 11.359 8.95906C11.9088 9.10884 12.4337 9.32817 12.9337 9.61706C13.1003 9.72817 13.2365 9.86972 13.3423 10.0417C13.4477 10.2142 13.5003 10.4004 13.5003 10.6004V11.6671H5.83366ZM6.90033 10.6671H12.4337V10.4837C12.0114 10.2393 11.567 10.0533 11.1003 9.92572C10.6337 9.79772 10.1559 9.73372 9.66699 9.73372C9.1781 9.73372 8.70033 9.79772 8.23366 9.92572C7.76699 10.0533 7.32255 10.2393 6.90033 10.4837V10.6671ZM9.66699 7.70039C9.15588 7.70039 8.72255 7.52261 8.36699 7.16706C8.01144 6.8115 7.83366 6.37817 7.83366 5.86706C7.83366 5.35595 8.01144 4.92261 8.36699 4.56706C8.72255 4.2115 9.15588 4.03372 9.66699 4.03372C10.1781 4.03372 10.6114 4.2115 10.967 4.56706C11.3225 4.92261 11.5003 5.35595 11.5003 5.86706C11.5003 6.37817 11.3225 6.8115 10.967 7.16706C10.6114 7.52261 10.1781 7.70039 9.66699 7.70039ZM9.66699 6.70039C9.90032 6.70039 10.0977 6.61995 10.259 6.45906C10.4199 6.29772 10.5003 6.10039 10.5003 5.86706C10.5003 5.63372 10.4199 5.43639 10.259 5.27506C10.0977 5.11417 9.90032 5.03372 9.66699 5.03372C9.43366 5.03372 9.23655 5.11417 9.07566 5.27506C8.91432 5.43639 8.83366 5.63372 8.83366 5.86706C8.83366 6.10039 8.91432 6.29772 9.07566 6.45906C9.23655 6.61995 9.43366 6.70039 9.66699 6.70039Z" fill="white"/>
</svg>
